<?xml version="1.0" encoding="utf-8" standalone="no"?>
<!DOCTYPE svg PUBLIC "-//W3C//DTD SVG 1.1//EN"
  "http://www.w3.org/Graphics/SVG/1.1/DTD/svg11.dtd">
<svg xmlns:xlink="http://www.w3.org/1999/xlink" width="864pt" height="432pt" viewBox="0 0 864 432" xmlns="http://www.w3.org/2000/svg" version="1.1">
 <metadata>
  <rdf:RDF xmlns:dc="http://purl.org/dc/elements/1.1/" xmlns:cc="http://creativecommons.org/ns#" xmlns:rdf="http://www.w3.org/1999/02/22-rdf-syntax-ns#">
   <cc:Work>
    <dc:type rdf:resource="http://purl.org/dc/dcmitype/StillImage"/>
    <dc:date>2024-11-24T09:45:30.225273</dc:date>
    <dc:format>image/svg+xml</dc:format>
    <dc:creator>
     <cc:Agent>
      <dc:title>Matplotlib v3.9.2, https://matplotlib.org/</dc:title>
     </cc:Agent>
    </dc:creator>
   </cc:Work>
  </rdf:RDF>
 </metadata>
 <defs>
  <style type="text/css">*{stroke-linejoin: round; stroke-linecap: butt}</style>
 </defs>
 <g id="figure_1">
  <g id="patch_1">
   <path d="M 0 432 
L 864 432 
L 864 0 
L 0 0 
z
" style="fill: #ffffff"/>
  </g>
  <g id="axes_1">
   <g id="patch_2">
    <path d="M 108 384.48 
L 777.6 384.48 
L 777.6 51.84 
L 108 51.84 
z
" style="fill: #ffffff"/>
   </g>
   <g id="matplotlib.axis_1">
    <g id="xtick_1">
     <g id="line2d_1">
      <defs>
       <path id="m98596b9079" d="M 0 0 
L 0 3.5 
" style="stroke: #000000; stroke-width: 0.8"/>
      </defs>
      <g>
       <use xlink:href="#m98596b9079" x="138.436364" y="384.48" style="stroke: #000000; stroke-width: 0.8"/>
      </g>
     </g>
     <g id="text_1">
      <!-- 0 -->
      <g transform="translate(135.255114 399.078438) scale(0.1 -0.1)">
       <defs>
        <path id="DejaVuSans-30" d="M 2034 4250 
Q 1547 4250 1301 3770 
Q 1056 3291 1056 2328 
Q 1056 1369 1301 889 
Q 1547 409 2034 409 
Q 2525 409 2770 889 
Q 3016 1369 3016 2328 
Q 3016 3291 2770 3770 
Q 2525 4250 2034 4250 
z
M 2034 4750 
Q 2819 4750 3233 4129 
Q 3647 3509 3647 2328 
Q 3647 1150 3233 529 
Q 2819 -91 2034 -91 
Q 1250 -91 836 529 
Q 422 1150 422 2328 
Q 422 3509 836 4129 
Q 1250 4750 2034 4750 
z
" transform="scale(0.015625)"/>
       </defs>
       <use xlink:href="#DejaVuSans-30"/>
      </g>
     </g>
    </g>
    <g id="xtick_2">
     <g id="line2d_2">
      <g>
       <use xlink:href="#m98596b9079" x="231.585143" y="384.48" style="stroke: #000000; stroke-width: 0.8"/>
      </g>
     </g>
     <g id="text_2">
      <!-- 200 -->
      <g transform="translate(222.041393 399.078438) scale(0.1 -0.1)">
       <defs>
        <path id="DejaVuSans-32" d="M 1228 531 
L 3431 531 
L 3431 0 
L 469 0 
L 469 531 
Q 828 903 1448 1529 
Q 2069 2156 2228 2338 
Q 2531 2678 2651 2914 
Q 2772 3150 2772 3378 
Q 2772 3750 2511 3984 
Q 2250 4219 1831 4219 
Q 1534 4219 1204 4116 
Q 875 4013 500 3803 
L 500 4441 
Q 881 4594 1212 4672 
Q 1544 4750 1819 4750 
Q 2544 4750 2975 4387 
Q 3406 4025 3406 3419 
Q 3406 3131 3298 2873 
Q 3191 2616 2906 2266 
Q 2828 2175 2409 1742 
Q 1991 1309 1228 531 
z
" transform="scale(0.015625)"/>
       </defs>
       <use xlink:href="#DejaVuSans-32"/>
       <use xlink:href="#DejaVuSans-30" x="63.623047"/>
       <use xlink:href="#DejaVuSans-30" x="127.246094"/>
      </g>
     </g>
    </g>
    <g id="xtick_3">
     <g id="line2d_3">
      <g>
       <use xlink:href="#m98596b9079" x="324.733922" y="384.48" style="stroke: #000000; stroke-width: 0.8"/>
      </g>
     </g>
     <g id="text_3">
      <!-- 400 -->
      <g transform="translate(315.190172 399.078438) scale(0.1 -0.1)">
       <defs>
        <path id="DejaVuSans-34" d="M 2419 4116 
L 825 1625 
L 2419 1625 
L 2419 4116 
z
M 2253 4666 
L 3047 4666 
L 3047 1625 
L 3713 1625 
L 3713 1100 
L 3047 1100 
L 3047 0 
L 2419 0 
L 2419 1100 
L 313 1100 
L 313 1709 
L 2253 4666 
z
" transform="scale(0.015625)"/>
       </defs>
       <use xlink:href="#DejaVuSans-34"/>
       <use xlink:href="#DejaVuSans-30" x="63.623047"/>
       <use xlink:href="#DejaVuSans-30" x="127.246094"/>
      </g>
     </g>
    </g>
    <g id="xtick_4">
     <g id="line2d_4">
      <g>
       <use xlink:href="#m98596b9079" x="417.882702" y="384.48" style="stroke: #000000; stroke-width: 0.8"/>
      </g>
     </g>
     <g id="text_4">
      <!-- 600 -->
      <g transform="translate(408.338952 399.078438) scale(0.1 -0.1)">
       <defs>
        <path id="DejaVuSans-36" d="M 2113 2584 
Q 1688 2584 1439 2293 
Q 1191 2003 1191 1497 
Q 1191 994 1439 701 
Q 1688 409 2113 409 
Q 2538 409 2786 701 
Q 3034 994 3034 1497 
Q 3034 2003 2786 2293 
Q 2538 2584 2113 2584 
z
M 3366 4563 
L 3366 3988 
Q 3128 4100 2886 4159 
Q 2644 4219 2406 4219 
Q 1781 4219 1451 3797 
Q 1122 3375 1075 2522 
Q 1259 2794 1537 2939 
Q 1816 3084 2150 3084 
Q 2853 3084 3261 2657 
Q 3669 2231 3669 1497 
Q 3669 778 3244 343 
Q 2819 -91 2113 -91 
Q 1303 -91 875 529 
Q 447 1150 447 2328 
Q 447 3434 972 4092 
Q 1497 4750 2381 4750 
Q 2619 4750 2861 4703 
Q 3103 4656 3366 4563 
z
" transform="scale(0.015625)"/>
       </defs>
       <use xlink:href="#DejaVuSans-36"/>
       <use xlink:href="#DejaVuSans-30" x="63.623047"/>
       <use xlink:href="#DejaVuSans-30" x="127.246094"/>
      </g>
     </g>
    </g>
    <g id="xtick_5">
     <g id="line2d_5">
      <g>
       <use xlink:href="#m98596b9079" x="511.031481" y="384.48" style="stroke: #000000; stroke-width: 0.8"/>
      </g>
     </g>
     <g id="text_5">
      <!-- 800 -->
      <g transform="translate(501.487731 399.078438) scale(0.1 -0.1)">
       <defs>
        <path id="DejaVuSans-38" d="M 2034 2216 
Q 1584 2216 1326 1975 
Q 1069 1734 1069 1313 
Q 1069 891 1326 650 
Q 1584 409 2034 409 
Q 2484 409 2743 651 
Q 3003 894 3003 1313 
Q 3003 1734 2745 1975 
Q 2488 2216 2034 2216 
z
M 1403 2484 
Q 997 2584 770 2862 
Q 544 3141 544 3541 
Q 544 4100 942 4425 
Q 1341 4750 2034 4750 
Q 2731 4750 3128 4425 
Q 3525 4100 3525 3541 
Q 3525 3141 3298 2862 
Q 3072 2584 2669 2484 
Q 3125 2378 3379 2068 
Q 3634 1759 3634 1313 
Q 3634 634 3220 271 
Q 2806 -91 2034 -91 
Q 1263 -91 848 271 
Q 434 634 434 1313 
Q 434 1759 690 2068 
Q 947 2378 1403 2484 
z
M 1172 3481 
Q 1172 3119 1398 2916 
Q 1625 2713 2034 2713 
Q 2441 2713 2670 2916 
Q 2900 3119 2900 3481 
Q 2900 3844 2670 4047 
Q 2441 4250 2034 4250 
Q 1625 4250 1398 4047 
Q 1172 3844 1172 3481 
z
" transform="scale(0.015625)"/>
       </defs>
       <use xlink:href="#DejaVuSans-38"/>
       <use xlink:href="#DejaVuSans-30" x="63.623047"/>
       <use xlink:href="#DejaVuSans-30" x="127.246094"/>
      </g>
     </g>
    </g>
    <g id="xtick_6">
     <g id="line2d_6">
      <g>
       <use xlink:href="#m98596b9079" x="604.18026" y="384.48" style="stroke: #000000; stroke-width: 0.8"/>
      </g>
     </g>
     <g id="text_6">
      <!-- 1000 -->
      <g transform="translate(591.45526 399.078438) scale(0.1 -0.1)">
       <defs>
        <path id="DejaVuSans-31" d="M 794 531 
L 1825 531 
L 1825 4091 
L 703 3866 
L 703 4441 
L 1819 4666 
L 2450 4666 
L 2450 531 
L 3481 531 
L 3481 0 
L 794 0 
L 794 531 
z
" transform="scale(0.015625)"/>
       </defs>
       <use xlink:href="#DejaVuSans-31"/>
       <use xlink:href="#DejaVuSans-30" x="63.623047"/>
       <use xlink:href="#DejaVuSans-30" x="127.246094"/>
       <use xlink:href="#DejaVuSans-30" x="190.869141"/>
      </g>
     </g>
    </g>
    <g id="xtick_7">
     <g id="line2d_7">
      <g>
       <use xlink:href="#m98596b9079" x="697.329039" y="384.48" style="stroke: #000000; stroke-width: 0.8"/>
      </g>
     </g>
     <g id="text_7">
      <!-- 1200 -->
      <g transform="translate(684.604039 399.078438) scale(0.1 -0.1)">
       <use xlink:href="#DejaVuSans-31"/>
       <use xlink:href="#DejaVuSans-32" x="63.623047"/>
       <use xlink:href="#DejaVuSans-30" x="127.246094"/>
       <use xlink:href="#DejaVuSans-30" x="190.869141"/>
      </g>
     </g>
    </g>
   </g>
   <g id="matplotlib.axis_2">
    <g id="ytick_1">
     <g id="line2d_8">
      <defs>
       <path id="me43bc7024b" d="M 0 0 
L -3.5 0 
" style="stroke: #000000; stroke-width: 0.8"/>
      </defs>
      <g>
       <use xlink:href="#me43bc7024b" x="108" y="374.085" style="stroke: #000000; stroke-width: 0.8"/>
      </g>
     </g>
     <g id="text_8">
      <!-- 0 -->
      <g transform="translate(94.6375 377.884219) scale(0.1 -0.1)">
       <use xlink:href="#DejaVuSans-30"/>
      </g>
     </g>
    </g>
    <g id="ytick_2">
     <g id="line2d_9">
      <g>
       <use xlink:href="#me43bc7024b" x="108" y="322.000748" style="stroke: #000000; stroke-width: 0.8"/>
      </g>
     </g>
     <g id="text_9">
      <!-- 50 -->
      <g transform="translate(88.275 325.799967) scale(0.1 -0.1)">
       <defs>
        <path id="DejaVuSans-35" d="M 691 4666 
L 3169 4666 
L 3169 4134 
L 1269 4134 
L 1269 2991 
Q 1406 3038 1543 3061 
Q 1681 3084 1819 3084 
Q 2600 3084 3056 2656 
Q 3513 2228 3513 1497 
Q 3513 744 3044 326 
Q 2575 -91 1722 -91 
Q 1428 -91 1123 -41 
Q 819 9 494 109 
L 494 744 
Q 775 591 1075 516 
Q 1375 441 1709 441 
Q 2250 441 2565 725 
Q 2881 1009 2881 1497 
Q 2881 1984 2565 2268 
Q 2250 2553 1709 2553 
Q 1456 2553 1204 2497 
Q 953 2441 691 2322 
L 691 4666 
z
" transform="scale(0.015625)"/>
       </defs>
       <use xlink:href="#DejaVuSans-35"/>
       <use xlink:href="#DejaVuSans-30" x="63.623047"/>
      </g>
     </g>
    </g>
    <g id="ytick_3">
     <g id="line2d_10">
      <g>
       <use xlink:href="#me43bc7024b" x="108" y="269.916496" style="stroke: #000000; stroke-width: 0.8"/>
      </g>
     </g>
     <g id="text_10">
      <!-- 100 -->
      <g transform="translate(81.9125 273.715715) scale(0.1 -0.1)">
       <use xlink:href="#DejaVuSans-31"/>
       <use xlink:href="#DejaVuSans-30" x="63.623047"/>
       <use xlink:href="#DejaVuSans-30" x="127.246094"/>
      </g>
     </g>
    </g>
    <g id="ytick_4">
     <g id="line2d_11">
      <g>
       <use xlink:href="#me43bc7024b" x="108" y="217.832244" style="stroke: #000000; stroke-width: 0.8"/>
      </g>
     </g>
     <g id="text_11">
      <!-- 150 -->
      <g transform="translate(81.9125 221.631463) scale(0.1 -0.1)">
       <use xlink:href="#DejaVuSans-31"/>
       <use xlink:href="#DejaVuSans-35" x="63.623047"/>
       <use xlink:href="#DejaVuSans-30" x="127.246094"/>
      </g>
     </g>
    </g>
    <g id="ytick_5">
     <g id="line2d_12">
      <g>
       <use xlink:href="#me43bc7024b" x="108" y="165.747992" style="stroke: #000000; stroke-width: 0.8"/>
      </g>
     </g>
     <g id="text_12">
      <!-- 200 -->
      <g transform="translate(81.9125 169.547211) scale(0.1 -0.1)">
       <use xlink:href="#DejaVuSans-32"/>
       <use xlink:href="#DejaVuSans-30" x="63.623047"/>
       <use xlink:href="#DejaVuSans-30" x="127.246094"/>
      </g>
     </g>
    </g>
    <g id="ytick_6">
     <g id="line2d_13">
      <g>
       <use xlink:href="#me43bc7024b" x="108" y="113.66374" style="stroke: #000000; stroke-width: 0.8"/>
      </g>
     </g>
     <g id="text_13">
      <!-- 250 -->
      <g transform="translate(81.9125 117.462959) scale(0.1 -0.1)">
       <use xlink:href="#DejaVuSans-32"/>
       <use xlink:href="#DejaVuSans-35" x="63.623047"/>
       <use xlink:href="#DejaVuSans-30" x="127.246094"/>
      </g>
     </g>
    </g>
    <g id="ytick_7">
     <g id="line2d_14">
      <g>
       <use xlink:href="#me43bc7024b" x="108" y="61.579488" style="stroke: #000000; stroke-width: 0.8"/>
      </g>
     </g>
     <g id="text_14">
      <!-- 300 -->
      <g transform="translate(81.9125 65.378707) scale(0.1 -0.1)">
       <defs>
        <path id="DejaVuSans-33" d="M 2597 2516 
Q 3050 2419 3304 2112 
Q 3559 1806 3559 1356 
Q 3559 666 3084 287 
Q 2609 -91 1734 -91 
Q 1441 -91 1130 -33 
Q 819 25 488 141 
L 488 750 
Q 750 597 1062 519 
Q 1375 441 1716 441 
Q 2309 441 2620 675 
Q 2931 909 2931 1356 
Q 2931 1769 2642 2001 
Q 2353 2234 1838 2234 
L 1294 2234 
L 1294 2753 
L 1863 2753 
Q 2328 2753 2575 2939 
Q 2822 3125 2822 3475 
Q 2822 3834 2567 4026 
Q 2313 4219 1838 4219 
Q 1578 4219 1281 4162 
Q 984 4106 628 3988 
L 628 4550 
Q 988 4650 1302 4700 
Q 1616 4750 1894 4750 
Q 2613 4750 3031 4423 
Q 3450 4097 3450 3541 
Q 3450 3153 3228 2886 
Q 3006 2619 2597 2516 
z
" transform="scale(0.015625)"/>
       </defs>
       <use xlink:href="#DejaVuSans-33"/>
       <use xlink:href="#DejaVuSans-30" x="63.623047"/>
       <use xlink:href="#DejaVuSans-30" x="127.246094"/>
      </g>
     </g>
    </g>
   </g>
   <g id="line2d_15">
    <path d="M 138.436364 244.1475 
L 138.902108 293.76 
L 139.367851 255.96 
L 139.833595 248.8725 
L 140.299339 307.935 
L 140.765083 244.1475 
L 141.230827 286.6725 
L 141.696571 267.7725 
L 142.162315 137.835 
L 142.628059 206.3475 
L 143.093803 291.3975 
L 143.559546 161.46 
L 144.02529 357.5475 
L 144.491034 350.46 
L 144.956778 355.185 
L 145.422522 329.1975 
L 145.888266 316.20375 
L 146.35401 333.9225 
L 146.819754 244.1475 
L 147.285498 329.1975 
L 147.751242 265.41 
L 148.216985 234.6975 
L 148.682729 341.01 
L 149.148473 244.1475 
L 149.614217 350.46 
L 150.079961 239.4225 
L 150.545705 357.5475 
L 151.011449 359.91 
L 151.477193 137.835 
L 151.942937 338.6475 
L 152.408681 251.235 
L 153.340168 286.6725 
L 153.805912 336.285 
L 154.271656 355.185 
L 154.7374 333.9225 
L 155.203144 333.9225 
L 155.668888 260.685 
L 156.134632 362.2725 
L 156.600376 225.2475 
L 157.066119 281.9475 
L 157.531863 307.935 
L 157.997607 177.9975 
L 158.463351 307.935 
L 158.929095 341.01 
L 159.394839 279.585 
L 159.860583 260.685 
L 160.326327 201.6225 
L 160.792071 324.4725 
L 161.257815 329.1975 
L 162.189302 333.9225 
L 162.655046 329.1975 
L 163.12079 225.2475 
L 163.586534 201.6225 
L 164.052278 225.2475 
L 164.518022 350.46 
L 164.983766 284.31 
L 165.44951 336.285 
L 166.380997 246.51 
L 166.846741 298.485 
L 167.312485 201.6225 
L 167.778229 307.935 
L 168.243973 253.5975 
L 168.709717 239.4225 
L 169.175461 248.8725 
L 169.641205 350.46 
L 170.106949 359.91 
L 170.572692 263.0475 
L 171.038436 258.3225 
L 171.50418 364.635 
L 171.969924 201.6225 
L 172.435668 352.8225 
L 172.901412 237.06 
L 173.367156 196.8975 
L 173.8329 255.96 
L 174.298644 118.935 
L 174.764388 270.135 
L 175.230131 267.7725 
L 175.695875 307.935 
L 176.161619 206.3475 
L 176.627363 342.19125 
L 177.093107 244.1475 
L 177.558851 317.385 
L 178.024595 336.285 
L 178.490339 364.635 
L 178.956083 258.3225 
L 179.421827 279.585 
L 179.88757 350.46 
L 180.353314 258.3225 
L 180.819058 244.1475 
L 181.284802 211.0725 
L 181.750546 244.1475 
L 182.21629 260.685 
L 182.682034 258.3225 
L 183.147778 341.01 
L 183.613522 291.3975 
L 184.079265 90.585 
L 184.545009 310.2975 
L 185.010753 263.0475 
L 185.476497 346.91625 
L 185.942241 267.7725 
L 186.407985 350.46 
L 186.873729 355.185 
L 187.339473 244.1475 
L 187.805217 322.11 
L 188.270961 350.46 
L 188.736704 344.55375 
L 189.202448 244.1475 
L 189.668192 312.66 
L 190.133936 244.1475 
L 191.065424 336.285 
L 191.531168 244.1475 
L 191.996912 251.235 
L 192.9284 194.535 
L 193.394143 350.46 
L 193.859887 244.1475 
L 194.325631 355.185 
L 194.791375 362.2725 
L 195.257119 258.3225 
L 195.722863 255.96 
L 196.188607 244.1475 
L 196.654351 95.31 
L 197.120095 244.1475 
L 197.585838 196.8975 
L 198.051582 255.96 
L 198.517326 213.435 
L 198.98307 341.01 
L 199.448814 345.735 
L 199.914558 284.31 
L 200.380302 118.935 
L 200.846046 293.76 
L 201.31179 258.3225 
L 201.777534 319.7475 
L 202.243277 355.185 
L 203.174765 161.46 
L 203.640509 362.2725 
L 204.106253 258.3225 
L 204.571997 287.6175 
L 205.037741 263.0475 
L 205.503485 196.8975 
L 206.434973 265.41 
L 207.36646 229.9725 
L 207.832204 263.0475 
L 208.297948 305.5725 
L 208.763692 161.46 
L 209.229436 326.835 
L 209.69518 350.46 
L 210.160924 267.7725 
L 210.626668 369.36 
L 211.092411 258.3225 
L 211.558155 369.36 
L 212.023899 362.2725 
L 212.489643 225.2475 
L 212.955387 349.27875 
L 213.886875 239.4225 
L 214.352619 267.7725 
L 214.818363 326.835 
L 215.284107 345.735 
L 215.74985 258.3225 
L 216.215594 263.0475 
L 216.681338 199.26 
L 217.612826 338.6475 
L 218.07857 255.96 
L 218.544314 355.185 
L 219.010058 286.6725 
L 219.475802 267.7725 
L 219.941546 267.7725 
L 220.407289 274.86 
L 220.873033 350.46 
L 221.338777 215.7975 
L 221.804521 350.46 
L 222.270265 263.0475 
L 222.736009 258.3225 
L 223.201753 319.7475 
L 223.667497 253.5975 
L 224.598984 152.01 
L 225.064728 215.7975 
L 225.530472 319.7475 
L 225.996216 350.46 
L 226.46196 270.135 
L 226.927704 322.11 
L 227.393448 341.01 
L 227.859192 303.21 
L 228.324936 331.56 
L 228.79068 333.9225 
L 229.256423 66.96 
L 229.722167 244.1475 
L 230.187911 267.7725 
L 231.119399 267.7725 
L 232.050887 359.91 
L 232.516631 258.3225 
L 233.448119 267.7725 
L 233.913862 341.01 
L 234.379606 244.1475 
L 234.84535 201.6225 
L 235.311094 237.06 
L 235.776838 310.2975 
L 236.242582 260.685 
L 236.708326 362.2725 
L 237.17407 161.46 
L 237.639814 274.86 
L 238.105557 161.46 
L 238.571301 232.335 
L 239.037045 336.285 
L 239.502789 352.8225 
L 239.968533 329.1975 
L 240.434277 215.7975 
L 240.900021 213.435 
L 241.365765 201.6225 
L 241.831509 336.285 
L 242.297253 244.1475 
L 242.762996 239.4225 
L 243.22874 95.31 
L 243.694484 309.11625 
L 244.160228 239.4225 
L 244.625972 118.935 
L 245.091716 267.7725 
L 246.023204 348.0975 
L 246.488948 350.46 
L 246.954692 338.6475 
L 247.420435 286.6725 
L 247.886179 331.56 
L 248.351923 192.1725 
L 249.283411 307.935 
L 249.749155 248.8725 
L 250.214899 312.66 
L 250.680643 333.9225 
L 251.61213 201.6225 
L 252.077874 366.9975 
L 252.543618 246.51 
L 253.009362 206.3475 
L 253.475106 312.66 
L 253.94085 286.6725 
L 254.406594 284.31 
L 254.872338 237.06 
L 255.338082 258.3225 
L 255.803826 263.0475 
L 256.269569 263.0475 
L 256.735313 161.46 
L 257.201057 279.585 
L 257.666801 137.835 
L 258.132545 267.7725 
L 258.598289 357.5475 
L 259.064033 253.5975 
L 259.529777 312.66 
L 259.995521 319.7475 
L 260.461265 352.8225 
L 260.927008 222.885 
L 261.392752 331.56 
L 261.858496 255.96 
L 262.32424 218.16 
L 262.789984 201.6225 
L 263.255728 118.935 
L 263.721472 208.71 
L 264.187216 244.1475 
L 264.65296 263.0475 
L 265.118703 317.385 
L 265.584447 253.5975 
L 266.050191 237.06 
L 266.515935 265.41 
L 266.981679 237.06 
L 267.447423 192.1725 
L 267.913167 244.1475 
L 268.378911 362.2725 
L 268.844655 284.31 
L 269.310399 341.01 
L 269.776142 76.41 
L 270.241886 267.7725 
L 270.70763 109.485 
L 271.173374 286.6725 
L 271.639118 267.7725 
L 272.104862 263.0475 
L 272.570606 263.0475 
L 273.03635 313.84125 
L 273.502094 263.0475 
L 273.967838 336.285 
L 274.433581 267.7725 
L 274.899325 239.4225 
L 275.365069 253.5975 
L 275.830813 211.0725 
L 276.296557 279.585 
L 276.762301 267.7725 
L 277.228045 312.66 
L 277.693789 194.535 
L 278.159533 211.0725 
L 278.625276 357.5475 
L 279.09102 350.46 
L 279.556764 345.2625 
L 280.022508 319.7475 
L 280.488252 229.9725 
L 280.953996 255.96 
L 281.41974 263.0475 
L 282.351228 201.6225 
L 282.816972 355.185 
L 283.282715 307.935 
L 283.748459 137.835 
L 284.214203 341.01 
L 284.679947 263.0475 
L 285.145691 293.76 
L 285.611435 267.7725 
L 286.077179 255.96 
L 286.542923 324.4725 
L 287.008667 199.26 
L 287.474411 267.7725 
L 287.940154 263.0475 
L 288.405898 267.7725 
L 288.871642 187.4475 
L 289.337386 225.2475 
L 289.80313 272.4975 
L 290.268874 350.46 
L 290.734618 310.2975 
L 291.200362 255.96 
L 291.666106 244.1475 
L 292.131849 246.51 
L 292.597593 267.7725 
L 293.063337 267.7725 
L 293.529081 272.4975 
L 293.994825 324.4725 
L 294.460569 196.8975 
L 294.926313 267.7725 
L 295.392057 225.2475 
L 295.857801 350.46 
L 296.323545 206.3475 
L 296.789288 244.1475 
L 297.255032 260.685 
L 297.720776 333.9225 
L 298.18652 270.135 
L 298.652264 258.3225 
L 299.118008 161.46 
L 299.583752 194.535 
L 300.51524 359.91 
L 300.980984 211.0725 
L 301.446727 265.41 
L 301.912471 244.1475 
L 302.378215 336.285 
L 302.843959 350.46 
L 303.309703 265.41 
L 303.775447 234.6975 
L 304.241191 237.06 
L 304.706935 355.185 
L 305.172679 201.6225 
L 305.638422 260.685 
L 306.104166 258.3225 
L 306.56991 342.19125 
L 307.501398 189.81 
L 307.967142 333.9225 
L 308.432886 326.835 
L 308.89863 225.2475 
L 309.364374 211.0725 
L 309.830118 118.935 
L 310.295861 296.1225 
L 310.761605 267.7725 
L 311.227349 225.2475 
L 311.693093 312.66 
L 312.158837 222.885 
L 312.624581 229.9725 
L 313.090325 350.46 
L 313.556069 350.46 
L 314.021813 258.3225 
L 314.487557 234.6975 
L 314.9533 324.4725 
L 315.419044 267.7725 
L 315.884788 312.66 
L 316.350532 255.96 
L 316.816276 267.7725 
L 317.28202 326.835 
L 317.747764 206.3475 
L 318.213508 293.76 
L 318.679252 251.235 
L 319.144995 237.06 
L 319.610739 118.935 
L 320.076483 215.7975 
L 321.007971 225.2475 
L 321.473715 362.2725 
L 321.939459 350.46 
L 322.405203 343.3725 
L 322.870947 263.0475 
L 323.336691 358.72875 
L 323.802434 326.835 
L 324.268178 244.1475 
L 324.733922 100.035 
L 325.199666 322.11 
L 326.131154 213.435 
L 326.596898 307.935 
L 327.062642 307.935 
L 327.528386 258.3225 
L 327.99413 244.1475 
L 328.459873 248.8725 
L 328.925617 355.185 
L 329.391361 267.7725 
L 329.857105 322.11 
L 330.322849 267.7725 
L 330.788593 263.0475 
L 331.254337 253.5975 
L 331.720081 331.56 
L 332.185825 319.7475 
L 332.651568 248.8725 
L 333.117312 225.2475 
L 333.583056 350.46 
L 334.0488 248.8725 
L 334.514544 244.1475 
L 334.980288 343.3725 
L 335.446032 265.41 
L 335.911776 307.935 
L 336.37752 239.4225 
L 336.843264 274.86 
L 337.309007 218.16 
L 337.774751 246.51 
L 338.240495 225.2475 
L 338.706239 248.8725 
L 339.171983 182.7225 
L 339.637727 263.0475 
L 340.103471 289.035 
L 341.034959 246.51 
L 341.500703 265.41 
L 341.966446 258.3225 
L 342.43219 315.0225 
L 342.897934 331.56 
L 343.363678 326.835 
L 343.829422 215.7975 
L 344.295166 211.0725 
L 344.76091 350.46 
L 345.226654 244.1475 
L 345.692398 350.46 
L 346.158141 244.1475 
L 346.623885 225.2475 
L 347.089629 265.41 
L 347.555373 246.51 
L 348.021117 358.72875 
L 348.486861 267.7725 
L 348.952605 336.285 
L 349.418349 338.6475 
L 349.884093 263.0475 
L 350.349837 244.1475 
L 350.81558 352.8225 
L 351.281324 215.7975 
L 351.747068 225.2475 
L 352.212812 239.4225 
L 352.678556 336.285 
L 353.1443 76.41 
L 353.610044 215.7975 
L 354.075788 175.635 
L 354.541532 350.46 
L 355.007276 272.4975 
L 355.473019 225.2475 
L 355.938763 343.3725 
L 356.404507 333.9225 
L 356.870251 286.6725 
L 357.335995 307.935 
L 357.801739 194.535 
L 358.267483 244.1475 
L 358.733227 246.51 
L 359.198971 362.2725 
L 359.664714 199.26 
L 360.130458 286.6725 
L 361.061946 234.6975 
L 361.52769 284.31 
L 361.993434 215.7975 
L 362.459178 341.01 
L 362.924922 215.7975 
L 363.390666 312.66 
L 363.85641 336.285 
L 364.322153 220.5225 
L 364.787897 255.96 
L 365.253641 267.7725 
L 365.719385 270.135 
L 366.650873 161.46 
L 367.116617 267.7725 
L 367.582361 234.6975 
L 368.048105 241.785 
L 368.513849 241.785 
L 368.979592 336.285 
L 369.445336 253.5975 
L 369.91108 317.385 
L 370.376824 355.185 
L 370.842568 307.935 
L 371.308312 246.51 
L 371.774056 312.66 
L 372.2398 319.7475 
L 372.705544 350.46 
L 373.171287 267.7725 
L 373.637031 234.6975 
L 374.102775 258.3225 
L 374.568519 90.585 
L 375.034263 244.1475 
L 375.500007 234.6975 
L 375.965751 237.06 
L 376.431495 244.1475 
L 376.897239 263.0475 
L 377.362983 345.735 
L 377.828726 199.26 
L 378.29447 199.26 
L 378.760214 244.1475 
L 379.225958 366.9975 
L 379.691702 244.1475 
L 380.157446 199.26 
L 380.62319 246.51 
L 381.088934 336.285 
L 381.554678 350.46 
L 382.020422 258.3225 
L 382.486165 215.7975 
L 382.951909 201.6225 
L 383.417653 344.55375 
L 383.883397 260.685 
L 384.349141 344.55375 
L 384.814885 239.4225 
L 385.280629 350.46 
L 385.746373 260.685 
L 386.212117 76.41 
L 386.67786 349.27875 
L 387.143604 201.6225 
L 387.609348 341.01 
L 388.075092 213.435 
L 388.540836 213.435 
L 389.00658 161.46 
L 389.472324 279.585 
L 389.938068 255.96 
L 390.403812 244.1475 
L 390.869556 263.0475 
L 391.335299 286.6725 
L 391.801043 244.1475 
L 392.266787 260.685 
L 392.732531 203.985 
L 393.198275 237.06 
L 393.664019 312.66 
L 394.129763 324.4725 
L 394.595507 182.7225 
L 395.061251 336.285 
L 395.526995 246.51 
L 395.992738 281.9475 
L 396.458482 244.1475 
L 396.924226 258.3225 
L 397.38997 196.8975 
L 397.855714 267.7725 
L 398.321458 246.51 
L 398.787202 307.935 
L 399.252946 345.735 
L 399.71869 319.7475 
L 400.184433 220.5225 
L 400.650177 265.41 
L 401.115921 338.6475 
L 401.581665 293.76 
L 402.047409 366.9975 
L 402.513153 338.6475 
L 402.978897 286.6725 
L 403.444641 251.235 
L 403.910385 194.535 
L 404.841872 343.3725 
L 405.307616 336.285 
L 405.77336 199.26 
L 406.239104 258.3225 
L 406.704848 267.7725 
L 407.170592 267.7725 
L 407.636336 317.385 
L 408.10208 206.3475 
L 408.567824 244.1475 
L 409.033568 318.56625 
L 409.499311 239.4225 
L 409.965055 201.6225 
L 410.430799 331.56 
L 410.896543 341.01 
L 411.362287 239.4225 
L 412.293775 289.035 
L 412.759519 258.3225 
L 413.225263 215.7975 
L 413.691006 213.435 
L 414.15675 234.6975 
L 414.622494 355.185 
L 415.088238 192.1725 
L 415.553982 263.0475 
L 416.019726 258.3225 
L 416.48547 100.035 
L 416.951214 336.285 
L 417.416958 329.1975 
L 417.882702 234.6975 
L 418.348445 260.685 
L 418.814189 312.66 
L 419.279933 341.01 
L 419.745677 310.2975 
L 420.211421 241.785 
L 420.677165 95.31 
L 421.142909 244.1475 
L 421.608653 274.86 
L 422.074397 90.585 
L 422.540141 289.035 
L 423.005884 258.3225 
L 423.471628 333.9225 
L 424.403116 199.26 
L 424.86886 350.46 
L 425.334604 263.0475 
L 425.800348 258.3225 
L 426.266092 310.2975 
L 426.731836 298.485 
L 427.197579 225.2475 
L 427.663323 263.0475 
L 428.129067 248.8725 
L 428.594811 196.8975 
L 429.060555 341.01 
L 429.526299 317.385 
L 429.992043 263.0475 
L 430.457787 248.8725 
L 430.923531 336.285 
L 431.389275 324.4725 
L 431.855018 244.1475 
L 432.320762 289.035 
L 432.786506 182.7225 
L 433.25225 352.8225 
L 433.717994 362.2725 
L 434.649482 222.885 
L 435.115226 359.91 
L 435.58097 255.96 
L 436.046714 307.935 
L 436.512457 246.51 
L 436.978201 232.335 
L 437.909689 336.285 
L 438.375433 85.86 
L 438.841177 350.46 
L 439.306921 215.7975 
L 439.772665 255.96 
L 440.238409 260.685 
L 440.704152 359.91 
L 441.169896 345.735 
L 441.63564 71.685 
L 442.101384 66.96 
L 442.567128 333.9225 
L 443.032872 211.0725 
L 443.498616 350.46 
L 443.96436 312.66 
L 444.430104 246.51 
L 444.895848 318.56625 
L 445.361591 255.96 
L 445.827335 244.1475 
L 446.293079 336.285 
L 447.224567 180.36 
L 447.690311 225.2475 
L 448.156055 317.385 
L 448.621799 350.46 
L 449.087543 286.6725 
L 449.553286 326.835 
L 450.01903 208.71 
L 450.484774 366.9975 
L 451.416262 248.8725 
L 451.882006 355.185 
L 452.34775 312.66 
L 452.813494 218.16 
L 453.279238 244.1475 
L 453.744982 237.06 
L 454.210725 336.285 
L 454.676469 310.2975 
L 455.142213 206.3475 
L 455.607957 341.01 
L 456.073701 359.91 
L 456.539445 199.26 
L 457.005189 90.585 
L 457.470933 253.5975 
L 457.936677 284.31 
L 458.402421 350.46 
L 458.868164 225.2475 
L 459.333908 213.435 
L 459.799652 344.55375 
L 460.265396 289.035 
L 460.73114 350.46 
L 461.196884 355.185 
L 461.662628 234.6975 
L 462.128372 345.735 
L 462.594116 345.735 
L 463.059859 196.8975 
L 463.525603 199.26 
L 463.991347 329.1975 
L 464.457091 239.4225 
L 464.922835 260.685 
L 465.388579 246.51 
L 465.854323 114.21 
L 466.320067 196.8975 
L 466.785811 196.8975 
L 467.251555 246.51 
L 467.717298 267.7725 
L 468.183042 225.2475 
L 468.648786 355.185 
L 469.11453 246.51 
L 469.580274 312.66 
L 470.046018 201.6225 
L 470.511762 267.7725 
L 470.977506 255.96 
L 471.44325 100.035 
L 471.908994 307.935 
L 472.374737 267.7725 
L 472.840481 267.7725 
L 473.306225 66.96 
L 473.771969 317.385 
L 474.237713 109.485 
L 474.703457 234.6975 
L 475.169201 76.41 
L 475.634945 267.7725 
L 476.100689 307.935 
L 476.566432 244.1475 
L 477.032176 260.685 
L 477.49792 206.3475 
L 477.963664 326.835 
L 478.429408 267.7725 
L 478.895152 244.1475 
L 479.360896 345.735 
L 479.82664 152.01 
L 480.292384 114.21 
L 480.758128 192.1725 
L 481.223871 331.56 
L 481.689615 253.5975 
L 482.155359 76.41 
L 482.621103 286.6725 
L 483.086847 263.0475 
L 483.552591 338.6475 
L 484.018335 265.41 
L 484.484079 357.5475 
L 484.949823 293.76 
L 485.415567 267.7725 
L 485.88131 201.6225 
L 486.347054 199.26 
L 486.812798 248.8725 
L 487.278542 369.36 
L 487.744286 341.01 
L 488.21003 244.1475 
L 488.675774 244.1475 
L 489.141518 336.285 
L 489.607262 267.7725 
L 490.073005 218.16 
L 490.538749 312.66 
L 491.004493 333.9225 
L 491.470237 215.7975 
L 491.935981 241.785 
L 492.401725 173.2725 
L 492.867469 307.935 
L 493.333213 192.1725 
L 493.798957 255.96 
L 494.264701 369.36 
L 494.730444 263.0475 
L 495.196188 220.5225 
L 495.661932 350.46 
L 496.127676 350.46 
L 496.59342 201.6225 
L 497.059164 267.7725 
L 497.524908 244.1475 
L 497.990652 343.3725 
L 498.456396 225.2475 
L 498.92214 192.1725 
L 499.387883 244.1475 
L 499.853627 322.11 
L 500.319371 344.55375 
L 500.785115 341.01 
L 501.250859 201.6225 
L 502.182347 265.41 
L 502.648091 350.46 
L 503.113835 265.41 
L 503.579578 350.46 
L 504.045322 194.535 
L 504.511066 76.41 
L 504.97681 267.7725 
L 505.442554 201.6225 
L 505.908298 215.7975 
L 506.374042 319.7475 
L 506.839786 359.91 
L 507.30553 90.585 
L 507.771274 286.6725 
L 508.237017 289.035 
L 508.702761 244.1475 
L 509.168505 307.935 
L 509.634249 118.935 
L 510.099993 307.935 
L 510.565737 253.5975 
L 511.497225 258.3225 
L 511.962969 315.0225 
L 512.428713 255.96 
L 512.894456 246.51 
L 513.825944 317.385 
L 514.291688 263.0475 
L 514.757432 267.7725 
L 515.223176 279.585 
L 515.68892 187.4475 
L 516.154664 244.1475 
L 516.620408 234.6975 
L 517.086151 211.0725 
L 517.551895 232.335 
L 518.017639 319.7475 
L 518.483383 267.7725 
L 518.949127 317.385 
L 519.414871 279.585 
L 519.880615 260.685 
L 520.346359 267.7725 
L 520.812103 182.7225 
L 521.277847 244.1475 
L 521.74359 281.9475 
L 522.209334 263.0475 
L 522.675078 350.46 
L 523.140822 331.56 
L 523.606566 319.7475 
L 524.07231 338.6475 
L 524.538054 229.9725 
L 525.003798 258.3225 
L 525.469542 350.46 
L 525.935286 317.385 
L 526.401029 244.1475 
L 526.866773 213.435 
L 527.332517 244.1475 
L 527.798261 350.46 
L 528.264005 267.7725 
L 528.729749 307.935 
L 529.195493 267.7725 
L 529.661237 265.41 
L 530.126981 315.0225 
L 530.592724 234.6975 
L 531.058468 258.3225 
L 531.524212 310.2975 
L 531.989956 281.9475 
L 532.4557 199.26 
L 532.921444 225.2475 
L 533.387188 227.61 
L 533.852932 341.01 
L 534.318676 95.31 
L 534.78442 203.985 
L 535.250163 267.7725 
L 535.715907 95.31 
L 536.647395 350.46 
L 537.113139 286.6725 
L 537.578883 100.035 
L 538.044627 364.635 
L 538.510371 201.6225 
L 538.976115 312.66 
L 539.441859 208.71 
L 539.907602 267.7725 
L 540.373346 355.185 
L 540.83909 312.66 
L 541.304834 239.4225 
L 541.770578 85.86 
L 542.236322 196.8975 
L 542.702066 118.935 
L 543.16781 309.11625 
L 543.633554 341.01 
L 544.099297 317.385 
L 544.565041 192.1725 
L 545.030785 239.4225 
L 545.496529 312.66 
L 545.962273 234.6975 
L 546.428017 201.6225 
L 546.893761 258.3225 
L 547.359505 286.6725 
L 547.825249 95.31 
L 548.756736 338.6475 
L 549.22248 196.8975 
L 549.688224 225.2475 
L 550.153968 265.41 
L 550.619712 260.685 
L 551.085456 338.6475 
L 551.5512 265.41 
L 552.016944 345.735 
L 552.482688 248.8725 
L 552.948432 244.1475 
L 553.414175 345.735 
L 554.345663 95.31 
L 554.811407 265.41 
L 555.277151 312.66 
L 555.742895 258.3225 
L 556.208639 270.135 
L 556.674383 244.1475 
L 557.140127 341.01 
L 557.60587 350.46 
L 558.071614 258.3225 
L 558.537358 244.1475 
L 559.003102 203.985 
L 559.468846 315.0225 
L 559.93459 267.7725 
L 560.400334 336.285 
L 560.866078 331.56 
L 561.331822 194.535 
L 561.797566 289.035 
L 562.263309 319.7475 
L 562.729053 241.785 
L 563.194797 350.46 
L 563.660541 244.1475 
L 564.126285 274.86 
L 564.592029 350.46 
L 565.057773 263.0475 
L 565.523517 267.7725 
L 565.989261 267.7725 
L 566.455005 270.135 
L 566.920748 357.5475 
L 567.386492 192.1725 
L 567.852236 341.01 
L 568.31798 244.1475 
L 568.783724 201.6225 
L 569.249468 211.0725 
L 569.715212 248.8725 
L 570.180956 267.7725 
L 570.6467 208.71 
L 571.112443 350.46 
L 571.578187 279.585 
L 572.043931 263.0475 
L 572.509675 258.3225 
L 572.975419 319.7475 
L 573.441163 246.51 
L 573.906907 352.8225 
L 574.372651 255.96 
L 574.838395 263.0475 
L 575.304139 227.61 
L 575.769882 350.46 
L 576.235626 310.2975 
L 576.70137 218.16 
L 577.167114 192.1725 
L 577.632858 279.585 
L 578.098602 329.1975 
L 578.564346 286.6725 
L 579.03009 341.01 
L 579.495834 234.6975 
L 579.961578 260.685 
L 580.427321 199.26 
L 580.893065 357.5475 
L 581.358809 329.1975 
L 581.824553 267.7725 
L 582.290297 331.56 
L 582.756041 267.7725 
L 583.221785 258.3225 
L 583.687529 267.7725 
L 584.153273 187.4475 
L 584.619016 201.6225 
L 585.08476 137.835 
L 585.550504 358.72875 
L 586.016248 251.235 
L 586.481992 308.88 
L 586.947736 267.7725 
L 587.41348 199.26 
L 587.879224 317.385 
L 588.344968 310.2975 
L 588.810712 244.1475 
L 589.276455 312.66 
L 589.742199 352.8225 
L 590.207943 286.6725 
L 591.139431 213.435 
L 591.605175 244.1475 
L 592.070919 201.6225 
L 593.002407 338.6475 
L 593.468151 241.785 
L 593.933894 201.6225 
L 594.399638 326.835 
L 594.865382 244.1475 
L 595.331126 237.06 
L 595.79687 263.0475 
L 596.262614 348.0975 
L 597.194102 182.7225 
L 597.659846 336.285 
L 598.125589 270.135 
L 598.591333 248.8725 
L 599.057077 289.035 
L 599.522821 260.685 
L 599.988565 244.1475 
L 600.454309 330.37875 
L 600.920053 192.1725 
L 601.385797 333.9225 
L 601.851541 267.7725 
L 602.317285 341.01 
L 602.783028 322.11 
L 603.248772 244.1475 
L 603.714516 263.0475 
L 604.18026 286.6725 
L 604.646004 253.5975 
L 605.111748 312.66 
L 605.577492 220.5225 
L 606.043236 345.735 
L 606.50898 85.86 
L 606.974724 194.535 
L 607.440467 270.135 
L 607.906211 246.51 
L 608.371955 267.7725 
L 608.837699 312.66 
L 609.303443 187.4475 
L 609.769187 355.185 
L 610.234931 267.7725 
L 610.700675 270.135 
L 611.166419 270.135 
L 611.632162 312.66 
L 612.097906 248.8725 
L 612.56365 350.46 
L 613.029394 359.91 
L 613.495138 289.035 
L 613.960882 258.3225 
L 614.426626 286.6725 
L 614.89237 225.2475 
L 615.358114 362.2725 
L 615.823858 196.8975 
L 616.289601 315.0225 
L 616.755345 85.86 
L 617.221089 359.91 
L 617.686833 255.96 
L 618.152577 206.3475 
L 618.618321 244.1475 
L 619.084065 267.7725 
L 619.549809 215.7975 
L 620.015553 346.91625 
L 620.481297 225.2475 
L 620.94704 267.7725 
L 621.412784 336.285 
L 621.878528 194.535 
L 622.344272 338.6475 
L 622.810016 336.285 
L 623.27576 265.41 
L 624.207248 213.435 
L 624.672992 201.6225 
L 625.138735 237.06 
L 625.604479 350.46 
L 626.070223 310.2975 
L 626.535967 215.7975 
L 627.001711 265.41 
L 627.467455 232.335 
L 627.933199 350.46 
L 628.398943 346.91625 
L 628.864687 336.285 
L 629.330431 225.2475 
L 629.796174 345.735 
L 630.261918 333.9225 
L 630.727662 350.46 
L 631.193406 232.335 
L 631.65915 258.3225 
L 632.124894 161.46 
L 632.590638 365.81625 
L 633.056382 251.235 
L 633.522126 196.8975 
L 633.98787 358.72875 
L 634.453613 267.7725 
L 634.919357 286.6725 
L 635.385101 279.585 
L 635.850845 234.6975 
L 636.316589 358.72875 
L 636.782333 244.1475 
L 637.248077 346.91625 
L 637.713821 286.6725 
L 638.179565 317.385 
L 638.645308 244.1475 
L 639.111052 356.36625 
L 639.576796 267.7725 
L 640.04254 90.585 
L 640.508284 341.01 
L 640.974028 336.285 
L 641.439772 192.1725 
L 641.905516 350.46 
L 642.37126 225.2475 
L 642.837004 267.7725 
L 643.302747 246.51 
L 643.768491 289.035 
L 644.234235 225.2475 
L 644.699979 215.7975 
L 645.165723 310.2975 
L 645.631467 199.26 
L 646.097211 241.785 
L 646.562955 331.56 
L 647.028699 362.2725 
L 647.494443 244.1475 
L 647.960186 350.46 
L 648.42593 355.185 
L 648.891674 331.56 
L 649.357418 358.72875 
L 649.823162 317.385 
L 650.288906 345.2625 
L 650.75465 362.2725 
L 651.220394 344.55375 
L 651.686138 208.71 
L 652.151881 244.1475 
L 652.617625 350.46 
L 653.083369 211.0725 
L 653.549113 307.935 
L 654.014857 263.0475 
L 654.480601 244.1475 
L 654.946345 260.685 
L 655.412089 187.4475 
L 655.877833 208.71 
L 656.343577 307.935 
L 656.80932 260.685 
L 657.275064 333.9225 
L 657.740808 258.3225 
L 658.206552 244.1475 
L 658.672296 267.7725 
L 659.13804 201.6225 
L 659.603784 215.7975 
L 660.069528 258.3225 
L 660.535272 218.16 
L 661.001016 356.36625 
L 661.466759 189.81 
L 661.932503 196.8975 
L 662.398247 293.76 
L 662.863991 213.435 
L 663.329735 309.11625 
L 663.795479 286.6725 
L 664.261223 246.51 
L 664.726967 361.09125 
L 665.192711 279.585 
L 665.658454 237.06 
L 666.124198 345.735 
L 666.589942 284.31 
L 667.055686 358.72875 
L 667.52143 329.1975 
L 667.987174 338.6475 
L 668.452918 201.6225 
L 668.918662 342.19125 
L 669.384406 267.7725 
L 669.85015 286.6725 
L 670.315893 244.1475 
L 670.781637 232.335 
L 671.247381 312.66 
L 671.713125 338.6475 
L 672.178869 244.1475 
L 672.644613 263.0475 
L 673.110357 213.435 
L 673.576101 357.5475 
L 674.041845 248.8725 
L 674.507589 341.01 
L 674.973332 239.4225 
L 675.439076 248.8725 
L 675.90482 357.5475 
L 676.836308 270.135 
L 677.302052 312.66 
L 678.23354 201.6225 
L 678.699284 208.71 
L 679.165027 246.51 
L 679.630771 206.3475 
L 680.096515 194.535 
L 680.562259 239.4225 
L 681.028003 180.36 
L 681.493747 315.0225 
L 681.959491 208.71 
L 682.425235 201.6225 
L 682.890979 346.91625 
L 683.356723 364.635 
L 683.822466 100.035 
L 684.28821 279.585 
L 684.753954 267.7725 
L 685.219698 225.2475 
L 685.685442 362.2725 
L 686.151186 244.1475 
L 686.61693 267.7725 
L 687.082674 234.6975 
L 687.548418 218.16 
L 688.014162 234.6975 
L 688.479905 326.835 
L 688.945649 258.3225 
L 689.411393 267.7725 
L 689.877137 137.835 
L 690.342881 161.46 
L 690.808625 215.7975 
L 691.274369 289.035 
L 691.740113 279.585 
L 692.205857 267.7725 
L 692.6716 286.6725 
L 693.137344 222.885 
L 693.603088 246.51 
L 694.068832 326.835 
L 694.534576 260.685 
L 695.00032 333.9225 
L 695.466064 331.56 
L 695.931808 229.9725 
L 696.397552 244.1475 
L 696.863296 267.7725 
L 697.329039 267.7725 
L 697.794783 258.3225 
L 698.260527 244.1475 
L 698.726271 307.935 
L 699.192015 206.3475 
L 699.657759 241.785 
L 700.123503 312.66 
L 700.589247 336.285 
L 701.520735 234.6975 
L 701.986478 331.56 
L 702.452222 244.1475 
L 702.917966 350.46 
L 703.38371 244.1475 
L 703.849454 244.1475 
L 704.315198 303.21 
L 704.780942 258.3225 
L 705.246686 350.46 
L 705.71243 244.1475 
L 706.178173 258.3225 
L 706.643917 211.0725 
L 707.109661 341.01 
L 707.575405 350.46 
L 708.041149 248.8725 
L 708.506893 267.7725 
L 708.972637 253.5975 
L 709.438381 315.0225 
L 709.904125 333.9225 
L 710.835612 274.86 
L 711.7671 350.46 
L 712.232844 355.185 
L 712.698588 315.0225 
L 713.164332 336.285 
L 713.630076 331.56 
L 714.09582 362.2725 
L 714.561564 350.46 
L 715.027308 326.835 
L 715.493051 246.51 
L 715.958795 137.835 
L 716.424539 215.7975 
L 716.890283 206.3475 
L 717.356027 350.46 
L 717.821771 263.0475 
L 718.287515 227.61 
L 718.753259 298.485 
L 719.219003 201.6225 
L 719.684746 201.6225 
L 720.15049 324.4725 
L 720.616234 187.4475 
L 721.081978 310.2975 
L 721.547722 333.9225 
L 722.013466 263.0475 
L 722.47921 244.1475 
L 722.944954 341.01 
L 723.410698 201.6225 
L 723.876442 232.335 
L 724.342185 293.76 
L 724.807929 248.8725 
L 725.273673 307.935 
L 725.739417 345.735 
L 726.205161 267.7725 
L 726.670905 350.46 
L 727.136649 255.96 
L 727.602393 244.1475 
L 728.068137 260.685 
L 728.533881 225.2475 
L 728.999624 317.385 
L 729.465368 362.2725 
L 729.931112 234.6975 
L 730.396856 263.0475 
L 730.8626 331.56 
L 731.328344 293.76 
L 731.794088 350.46 
L 732.259832 362.2725 
L 732.725576 182.7225 
L 733.191319 244.1475 
L 733.657063 263.0475 
L 734.122807 161.46 
L 734.588551 355.185 
L 735.054295 322.11 
L 735.520039 350.46 
L 735.985783 258.3225 
L 736.451527 265.41 
L 736.917271 364.635 
L 737.383015 326.835 
L 737.848758 225.2475 
L 738.314502 201.6225 
L 738.780246 225.2475 
L 739.711734 286.6725 
L 740.177478 279.585 
L 740.643222 350.46 
L 741.108966 241.785 
L 741.57471 213.435 
L 742.040454 263.0475 
L 742.506197 267.7725 
L 742.971941 246.51 
L 743.437685 251.235 
L 743.903429 248.8725 
L 744.369173 270.135 
L 744.834917 263.0475 
L 745.300661 263.0475 
L 745.766405 244.1475 
L 746.232149 336.285 
L 746.697892 187.4475 
L 747.163636 369.36 
L 747.163636 369.36 
" clip-path="url(#p17233be1e8)" style="fill: none; stroke: #1f77b4; stroke-width: 1.5; stroke-linecap: square"/>
   </g>
   <g id="line2d_16">
    <path d="M 138.436364 261.250114 
L 138.902108 294.189008 
L 139.367851 250.851861 
L 139.833595 261.112941 
L 140.299339 280.355273 
L 140.765083 232.375557 
L 141.230827 246.854806 
L 141.696571 251.070478 
L 142.162315 253.389156 
L 142.628059 274.820185 
L 143.093803 271.117694 
L 143.559546 270.404945 
L 144.02529 314.995394 
L 144.491034 257.633662 
L 144.956778 285.083022 
L 145.422522 259.228996 
L 145.888266 251.175528 
L 146.35401 289.017181 
L 146.819754 260.321147 
L 147.285498 241.349529 
L 147.751242 255.622025 
L 148.216985 229.523989 
L 148.682729 273.318638 
L 149.148473 282.285815 
L 149.614217 253.650857 
L 150.079961 254.772501 
L 150.545705 311.303385 
L 151.011449 325.295214 
L 151.477193 254.566758 
L 151.942937 264.965425 
L 152.408681 302.420221 
L 152.874424 254.676957 
L 153.340168 273.599723 
L 153.805912 235.380765 
L 154.271656 286.693068 
L 154.7374 240.501053 
L 155.203144 293.928428 
L 155.668888 245.425239 
L 156.134632 314.447284 
L 156.600376 239.156635 
L 157.066119 266.058378 
L 157.531863 309.825919 
L 157.997607 226.874476 
L 158.463351 255.410941 
L 158.929095 319.510939 
L 160.326327 230.427214 
L 160.792071 280.986752 
L 161.257815 281.546076 
L 161.723558 296.969574 
L 162.189302 278.435374 
L 162.655046 278.586224 
L 163.12079 218.358698 
L 163.586534 217.724811 
L 164.052278 224.493999 
L 164.518022 239.47237 
L 165.44951 302.835498 
L 165.915254 224.968508 
L 166.380997 259.795067 
L 166.846741 269.964252 
L 167.312485 222.968364 
L 168.243973 263.037729 
L 168.709717 252.454046 
L 169.175461 258.876067 
L 169.641205 300.973718 
L 170.106949 315.381921 
L 170.572692 255.592325 
L 171.038436 277.075856 
L 171.50418 307.759326 
L 171.969924 235.244483 
L 172.435668 293.281397 
L 172.901412 256.438774 
L 173.367156 196.08548 
L 173.8329 246.371944 
L 174.298644 263.841746 
L 174.764388 270.503882 
L 175.230131 241.142252 
L 175.695875 259.44128 
L 176.161619 248.366263 
L 176.627363 295.42113 
L 177.093107 299.0173 
L 177.558851 246.444099 
L 178.024595 265.462131 
L 178.490339 306.42942 
L 178.956083 272.298618 
L 179.421827 254.48718 
L 179.88757 277.77871 
L 180.353314 247.136693 
L 180.819058 230.73071 
L 181.284802 244.575897 
L 181.750546 205.862212 
L 182.21629 260.988207 
L 182.682034 226.499087 
L 183.147778 293.599627 
L 183.613522 295.623185 
L 184.079265 250.368061 
L 184.545009 234.467622 
L 185.010753 230.657451 
L 185.476497 297.971665 
L 185.942241 218.273899 
L 186.407985 239.575401 
L 186.873729 297.545191 
L 187.339473 257.149647 
L 187.805217 241.004332 
L 188.270961 280.79061 
L 188.736704 279.685361 
L 189.202448 283.692159 
L 189.668192 262.823545 
L 190.133936 220.209605 
L 190.59968 282.179788 
L 191.065424 305.290991 
L 191.531168 268.825036 
L 191.996912 253.255266 
L 192.462656 269.860872 
L 192.9284 261.218825 
L 193.394143 249.39133 
L 193.859887 228.746015 
L 194.325631 239.296669 
L 194.791375 315.607028 
L 195.257119 231.91289 
L 195.722863 273.033413 
L 196.188607 240.335445 
L 196.654351 280.487058 
L 197.120095 208.330047 
L 198.051582 315.194397 
L 198.517326 224.634891 
L 198.98307 275.524995 
L 199.448814 240.010777 
L 199.914558 282.630296 
L 200.380302 252.961553 
L 200.846046 294.330059 
L 201.31179 227.964895 
L 201.777534 325.684734 
L 202.709021 238.879254 
L 203.174765 239.028983 
L 203.640509 278.464748 
L 204.106253 269.661924 
L 204.571997 269.220302 
L 205.037741 259.704101 
L 205.503485 209.495378 
L 205.969229 243.96087 
L 206.434973 263.818428 
L 206.900716 255.055834 
L 207.36646 198.838373 
L 207.832204 265.524892 
L 208.297948 258.315161 
L 208.763692 237.57656 
L 209.229436 278.416348 
L 209.69518 305.177692 
L 210.160924 254.893024 
L 210.626668 236.42466 
L 211.092411 297.30978 
L 211.558155 265.884282 
L 212.489643 230.693707 
L 212.955387 299.380792 
L 213.421131 278.015186 
L 213.886875 243.191273 
L 214.352619 267.328584 
L 214.818363 300.767355 
L 215.284107 286.464484 
L 215.74985 252.859484 
L 216.215594 271.250941 
L 216.681338 196.522969 
L 217.612826 315.771869 
L 218.07857 301.079483 
L 218.544314 268.680028 
L 219.010058 263.887285 
L 219.475802 205.509808 
L 219.941546 290.865474 
L 220.407289 281.877833 
L 220.873033 264.584783 
L 221.338777 217.509706 
L 221.804521 264.405934 
L 222.270265 265.676664 
L 222.736009 261.688963 
L 223.201753 316.836165 
L 223.667497 303.388925 
L 224.133241 237.261555 
L 224.598984 240.904179 
L 225.064728 250.753019 
L 225.530472 281.14009 
L 225.996216 289.485285 
L 226.46196 283.826391 
L 226.927704 254.499125 
L 227.393448 301.917912 
L 227.859192 220.908598 
L 228.324936 259.254492 
L 228.79068 310.685159 
L 229.256423 291.78461 
L 229.722167 192.45349 
L 230.187911 241.173811 
L 230.653655 245.863166 
L 231.119399 243.963469 
L 231.585143 246.660126 
L 232.050887 306.618314 
L 232.516631 265.825733 
L 232.982375 254.351772 
L 233.448119 235.722886 
L 233.913862 299.331605 
L 234.379606 283.022875 
L 234.84535 214.509616 
L 235.311094 248.797912 
L 235.776838 253.672347 
L 236.242582 263.858459 
L 236.708326 292.723885 
L 237.17407 267.034823 
L 237.639814 282.280601 
L 238.105557 246.290539 
L 238.571301 248.188305 
L 239.502789 269.570489 
L 239.968533 285.901321 
L 240.434277 228.324563 
L 240.900021 230.579121 
L 241.365765 208.625866 
L 241.831509 293.434869 
L 242.297253 245.32503 
L 242.762996 255.15416 
L 243.22874 230.776694 
L 243.694484 191.739287 
L 244.160228 254.324242 
L 244.625972 247.089033 
L 245.091716 288.720528 
L 245.55746 288.558257 
L 246.023204 297.675679 
L 246.488948 322.237903 
L 246.954692 297.28194 
L 247.420435 249.959134 
L 247.886179 296.842392 
L 248.351923 182.937957 
L 248.817667 258.677898 
L 249.283411 310.125382 
L 249.749155 265.264391 
L 250.214899 287.357504 
L 250.680643 218.539502 
L 251.146387 213.946652 
L 251.61213 213.296044 
L 252.077874 297.534803 
L 252.543618 270.730472 
L 253.009362 290.113719 
L 253.475106 255.329687 
L 253.94085 256.871654 
L 254.406594 269.354923 
L 254.872338 251.281991 
L 255.338082 256.423173 
L 255.803826 256.620285 
L 256.269569 271.843135 
L 256.735313 273.727128 
L 257.201057 323.603732 
L 257.666801 254.7001 
L 258.132545 247.075546 
L 258.598289 311.86803 
L 259.064033 246.469698 
L 259.529777 267.144537 
L 259.995521 297.443638 
L 260.461265 253.4042 
L 260.927008 230.627378 
L 261.392752 299.593528 
L 261.858496 280.707543 
L 262.789984 206.075108 
L 263.255728 264.056501 
L 263.721472 236.968756 
L 264.187216 257.458802 
L 264.65296 272.952214 
L 265.118703 246.500406 
L 265.584447 260.996337 
L 266.050191 258.42385 
L 266.515935 265.596744 
L 266.981679 253.497964 
L 267.447423 183.892475 
L 267.913167 231.335176 
L 268.378911 300.164853 
L 268.844655 224.883328 
L 269.310399 310.066178 
L 269.776142 270.71371 
L 270.241886 263.085842 
L 270.70763 250.777584 
L 271.173374 259.179261 
L 271.639118 262.994542 
L 272.104862 253.869427 
L 272.570606 266.473862 
L 273.03635 204.803186 
L 273.502094 275.783596 
L 273.967838 263.527226 
L 274.433581 255.276074 
L 274.899325 204.022018 
L 275.365069 225.733766 
L 275.830813 219.284112 
L 276.296557 254.954068 
L 276.762301 239.572667 
L 277.228045 208.81093 
L 277.693789 187.318054 
L 278.159533 204.331618 
L 278.625276 324.688647 
L 279.09102 265.338803 
L 279.556764 246.660102 
L 280.022508 288.18871 
L 280.488252 262.968562 
L 280.953996 277.207425 
L 281.41974 277.032971 
L 282.351228 203.874895 
L 282.816972 317.975114 
L 283.282715 304.816935 
L 283.748459 267.70673 
L 284.214203 326.64553 
L 284.679947 249.718303 
L 285.145691 285.54422 
L 285.611435 238.542982 
L 286.077179 250.493805 
L 286.542923 281.810241 
L 287.008667 237.165598 
L 287.474411 259.933075 
L 287.940154 262.764727 
L 288.405898 255.852103 
L 288.871642 221.30856 
L 289.337386 278.698466 
L 289.80313 259.682278 
L 290.268874 311.652178 
L 290.734618 237.163945 
L 291.200362 252.979188 
L 291.666106 246.162919 
L 292.131849 272.829872 
L 292.597593 230.417534 
L 293.063337 263.045358 
L 293.529081 249.90165 
L 293.994825 318.522052 
L 294.460569 233.816521 
L 294.926313 226.375219 
L 295.392057 292.59307 
L 295.857801 285.642044 
L 296.323545 179.717453 
L 296.789288 255.108319 
L 297.255032 266.599598 
L 297.720776 286.612624 
L 298.18652 295.940375 
L 298.652264 289.827485 
L 299.118008 240.297822 
L 299.583752 210.668895 
L 300.049496 300.706335 
L 300.51524 287.429182 
L 300.980984 233.210673 
L 301.446727 294.58843 
L 301.912471 249.914446 
L 302.378215 317.117496 
L 302.843959 256.068798 
L 303.775447 316.261614 
L 304.241191 252.482823 
L 304.706935 281.035971 
L 305.172679 193.272218 
L 305.638422 287.453032 
L 306.104166 285.141857 
L 306.56991 311.720017 
L 307.035654 249.006413 
L 307.501398 234.751742 
L 307.967142 264.939675 
L 308.432886 323.147387 
L 308.89863 233.169585 
L 309.364374 235.50759 
L 309.830118 261.101481 
L 310.295861 242.62997 
L 310.761605 259.422659 
L 311.227349 251.360798 
L 311.693093 275.240811 
L 312.158837 224.645064 
L 313.090325 291.471545 
L 313.556069 277.559115 
L 314.021813 243.037753 
L 314.487557 266.370434 
L 314.9533 267.666922 
L 315.419044 262.88238 
L 315.884788 238.059779 
L 316.350532 250.882403 
L 316.816276 230.294222 
L 317.28202 226.346004 
L 317.747764 230.148402 
L 318.213508 244.088259 
L 319.144995 261.669802 
L 319.610739 246.153422 
L 320.076483 170.889596 
L 320.542227 242.928317 
L 321.007971 239.754647 
L 321.473715 297.883997 
L 321.939459 276.86923 
L 322.405203 283.465705 
L 322.870947 269.239503 
L 323.336691 327.652787 
L 323.802434 297.98702 
L 324.268178 280.407997 
L 324.733922 240.086897 
L 325.199666 242.621784 
L 325.66541 265.007045 
L 326.131154 217.342921 
L 326.596898 251.390974 
L 327.062642 239.578071 
L 327.528386 250.841386 
L 327.99413 210.742647 
L 328.925617 318.228995 
L 329.391361 253.740981 
L 329.857105 303.688782 
L 330.788593 238.83513 
L 331.254337 261.653613 
L 331.720081 296.964893 
L 332.185825 251.070645 
L 332.651568 247.990644 
L 333.117312 230.979067 
L 333.583056 320.162703 
L 334.0488 267.671626 
L 334.514544 248.213792 
L 334.980288 303.680794 
L 335.446032 284.584274 
L 335.911776 231.596344 
L 336.37752 253.196177 
L 336.843264 285.677124 
L 337.309007 228.039187 
L 337.774751 265.056391 
L 338.240495 222.898919 
L 338.706239 243.674492 
L 339.171983 199.450849 
L 339.637727 252.066029 
L 340.103471 246.812987 
L 340.569215 260.726776 
L 341.034959 252.549868 
L 341.500703 250.582665 
L 341.966446 316.987373 
L 342.43219 293.984887 
L 342.897934 262.332196 
L 343.363678 282.416478 
L 343.829422 224.444821 
L 344.295166 213.268975 
L 344.76091 304.694846 
L 345.226654 230.394979 
L 345.692398 225.941035 
L 346.158141 260.568686 
L 346.623885 236.006991 
L 347.089629 258.708185 
L 347.555373 273.04725 
L 348.021117 341.409124 
L 348.486861 225.948521 
L 348.952605 303.917572 
L 349.418349 321.152623 
L 349.884093 263.178088 
L 350.349837 249.941411 
L 350.81558 319.169712 
L 351.281324 229.915908 
L 351.747068 220.238025 
L 352.212812 188.406708 
L 352.678556 271.213564 
L 353.1443 246.578466 
L 353.610044 229.103808 
L 354.075788 191.098883 
L 354.541532 264.022256 
L 355.007276 260.055807 
L 355.473019 209.521573 
L 355.938763 316.76157 
L 356.404507 271.172881 
L 356.870251 262.352748 
L 357.335995 249.408306 
L 357.801739 273.465721 
L 358.267483 188.511551 
L 358.733227 254.038786 
L 359.198971 284.38895 
L 359.664714 226.705132 
L 360.130458 295.82404 
L 361.061946 260.125808 
L 361.52769 264.473455 
L 361.993434 244.695578 
L 362.459178 250.571181 
L 362.924922 223.662937 
L 363.85641 278.142281 
L 364.322153 272.797009 
L 364.787897 278.914373 
L 365.253641 238.999753 
L 365.719385 282.064081 
L 366.185129 212.087463 
L 366.650873 257.023164 
L 367.116617 276.358243 
L 367.582361 271.075207 
L 368.048105 249.057085 
L 368.513849 258.840415 
L 368.979592 276.559424 
L 369.445336 250.639656 
L 369.91108 254.936448 
L 370.376824 321.643774 
L 370.842568 236.717268 
L 371.308312 255.301124 
L 371.774056 257.24729 
L 372.2398 245.033153 
L 372.705544 274.112531 
L 373.171287 246.825718 
L 373.637031 260.481868 
L 374.102775 256.180888 
L 374.568519 268.321225 
L 375.034263 261.558347 
L 375.500007 232.814271 
L 375.965751 252.619893 
L 376.431495 219.297575 
L 376.897239 227.995222 
L 377.362983 319.491273 
L 377.828726 229.460235 
L 378.29447 211.625241 
L 379.225958 318.448706 
L 379.691702 213.277272 
L 380.157446 207.749218 
L 380.62319 248.797618 
L 381.088934 273.250807 
L 381.554678 320.863785 
L 382.020422 286.250126 
L 382.486165 225.806533 
L 382.951909 215.398742 
L 383.417653 272.483578 
L 383.883397 263.400974 
L 384.349141 276.774553 
L 384.814885 267.321479 
L 385.280629 224.688012 
L 385.746373 259.559601 
L 386.212117 232.232472 
L 386.67786 296.625125 
L 387.143604 199.34181 
L 387.609348 275.175085 
L 388.075092 254.540619 
L 388.540836 216.038017 
L 389.00658 269.072193 
L 389.472324 280.091848 
L 389.938068 279.932192 
L 390.403812 243.12163 
L 390.869556 270.036129 
L 391.335299 267.831457 
L 391.801043 234.402962 
L 392.266787 271.991585 
L 392.732531 223.109733 
L 393.664019 285.870326 
L 394.129763 329.197023 
L 394.595507 184.259932 
L 395.526995 285.360904 
L 395.992738 257.629759 
L 396.458482 221.155476 
L 396.924226 257.83342 
L 397.38997 224.911319 
L 397.855714 222.582818 
L 398.321458 198.562915 
L 398.787202 212.631862 
L 399.252946 284.63315 
L 399.71869 226.70092 
L 400.184433 204.851236 
L 400.650177 260.69505 
L 401.115921 272.277033 
L 402.047409 254.955745 
L 402.513153 316.230376 
L 402.978897 227.875486 
L 403.444641 286.997851 
L 403.910385 272.571676 
L 404.376129 230.196564 
L 404.841872 333.00605 
L 405.307616 243.994384 
L 405.77336 226.320699 
L 406.239104 264.256959 
L 406.704848 227.803737 
L 407.170592 266.014548 
L 407.636336 268.116515 
L 408.10208 209.039403 
L 408.567824 280.583357 
L 409.033568 277.939788 
L 409.499311 271.437228 
L 409.965055 224.619855 
L 410.430799 325.263055 
L 410.896543 287.856531 
L 411.362287 262.982518 
L 411.828031 324.629856 
L 412.293775 277.221429 
L 413.225263 199.658611 
L 413.691006 204.661468 
L 414.15675 207.504087 
L 414.622494 289.800845 
L 415.088238 225.159676 
L 415.553982 223.773565 
L 416.019726 271.693978 
L 416.48547 243.926378 
L 416.951214 341.591976 
L 417.416958 261.47958 
L 417.882702 257.366421 
L 418.348445 263.215179 
L 418.814189 274.275047 
L 419.279933 322.852597 
L 419.745677 298.532833 
L 420.211421 249.024406 
L 420.677165 237.460543 
L 421.142909 245.463363 
L 421.608653 292.742235 
L 422.074397 239.169462 
L 422.540141 292.670295 
L 423.005884 258.65915 
L 423.471628 265.019658 
L 423.937372 268.965706 
L 424.403116 193.241827 
L 424.86886 260.842355 
L 425.334604 240.880726 
L 425.800348 214.87337 
L 426.266092 257.820037 
L 426.731836 270.495474 
L 427.197579 238.086657 
L 427.663323 272.321459 
L 428.129067 269.515843 
L 428.594811 215.017202 
L 429.060555 304.987558 
L 429.526299 236.715806 
L 429.992043 263.999089 
L 430.457787 254.4128 
L 430.923531 280.183951 
L 431.389275 314.874625 
L 431.855018 222.143437 
L 432.320762 277.180301 
L 432.786506 238.283404 
L 433.25225 257.723571 
L 433.717994 287.928527 
L 434.183738 307.158564 
L 434.649482 211.510798 
L 435.115226 228.288752 
L 435.58097 271.516687 
L 436.046714 245.305892 
L 436.512457 247.264043 
L 436.978201 220.106114 
L 437.443945 276.490814 
L 437.909689 257.552598 
L 438.375433 244.378165 
L 438.841177 269.944837 
L 439.306921 244.529238 
L 439.772665 277.291326 
L 440.238409 258.400056 
L 440.704152 298.789988 
L 441.169896 292.040263 
L 441.63564 250.072814 
L 442.101384 284.400124 
L 442.567128 303.459586 
L 443.032872 224.832496 
L 443.498616 324.747359 
L 443.96436 275.515283 
L 444.430104 253.683441 
L 444.895848 276.620047 
L 445.361591 290.64932 
L 445.827335 248.660469 
L 446.293079 274.910222 
L 446.758823 255.249124 
L 447.224567 183.642624 
L 447.690311 192.508454 
L 448.156055 286.49772 
L 448.621799 280.855842 
L 449.087543 241.342026 
L 449.553286 322.577513 
L 450.01903 200.645125 
L 450.484774 313.598928 
L 450.950518 253.537081 
L 451.416262 265.602729 
L 451.882006 313.905718 
L 452.34775 223.670853 
L 453.279238 250.749903 
L 454.210725 268.313222 
L 454.676469 296.529724 
L 455.142213 215.527777 
L 455.607957 309.387205 
L 456.073701 316.859582 
L 457.005189 244.614673 
L 457.470933 222.700106 
L 457.936677 266.342221 
L 458.402421 290.629952 
L 458.868164 251.746407 
L 459.333908 195.298366 
L 459.799652 289.786476 
L 460.265396 289.143649 
L 460.73114 289.293044 
L 461.196884 245.572989 
L 461.662628 243.469131 
L 462.128372 282.350975 
L 462.594116 271.815669 
L 463.059859 222.029455 
L 463.525603 228.091799 
L 463.991347 263.786956 
L 464.457091 273.027262 
L 464.922835 265.416568 
L 465.854323 232.071695 
L 466.320067 230.141059 
L 466.785811 234.131271 
L 467.717298 271.343361 
L 468.183042 272.341256 
L 468.648786 275.676568 
L 469.11453 294.57329 
L 470.046018 194.296355 
L 470.511762 282.788505 
L 470.977506 301.359391 
L 471.44325 239.748353 
L 471.908994 244.412649 
L 472.374737 265.876287 
L 472.840481 233.953296 
L 473.306225 247.486229 
L 473.771969 202.651691 
L 474.237713 237.2088 
L 474.703457 248.917092 
L 475.169201 245.703947 
L 475.634945 274.005956 
L 476.100689 248.095471 
L 477.032176 265.470865 
L 477.49792 248.253005 
L 477.963664 284.132629 
L 478.895152 261.804328 
L 479.360896 286.978754 
L 479.82664 273.026483 
L 480.292384 277.205089 
L 480.758128 196.220633 
L 481.223871 254.600352 
L 481.689615 269.613723 
L 482.155359 277.540406 
L 482.621103 256.319014 
L 483.086847 254.636043 
L 483.552591 301.46955 
L 484.018335 262.406918 
L 484.484079 312.616511 
L 484.949823 269.748718 
L 485.415567 279.917545 
L 485.88131 226.490472 
L 486.347054 239.903629 
L 486.812798 304.394259 
L 487.278542 265.107811 
L 487.744286 341.341563 
L 488.21003 239.808324 
L 488.675774 238.87838 
L 489.141518 269.786055 
L 489.607262 259.8802 
L 490.073005 202.880894 
L 490.538749 241.471132 
L 491.004493 306.789812 
L 491.470237 227.845429 
L 491.935981 264.137509 
L 492.401725 186.678159 
L 492.867469 279.392896 
L 493.333213 235.782968 
L 493.798957 242.746328 
L 494.264701 315.76271 
L 494.730444 226.296189 
L 495.196188 222.940278 
L 495.661932 239.834153 
L 496.127676 233.086454 
L 496.59342 243.744493 
L 497.059164 230.701464 
L 497.524908 251.039229 
L 497.990652 291.409054 
L 498.456396 245.713548 
L 499.387883 220.690186 
L 499.853627 285.296117 
L 500.319371 296.808273 
L 500.785115 271.124362 
L 501.250859 206.947163 
L 501.716603 269.283301 
L 502.182347 253.111441 
L 502.648091 310.589706 
L 503.113835 254.567211 
L 503.579578 247.747238 
L 504.045322 231.714395 
L 504.511066 252.309371 
L 504.97681 230.214191 
L 505.442554 197.913849 
L 505.908298 209.098102 
L 506.374042 276.068448 
L 506.839786 298.667129 
L 507.30553 245.198141 
L 508.237017 281.356037 
L 508.702761 205.502369 
L 509.168505 298.158788 
L 509.634249 258.357656 
L 510.099993 273.029217 
L 510.565737 267.683397 
L 511.031481 289.981434 
L 511.497225 269.490816 
L 511.962969 326.595545 
L 512.428713 264.482881 
L 512.894456 259.916099 
L 513.3602 234.812651 
L 513.825944 278.966198 
L 514.291688 280.562868 
L 514.757432 291.818712 
L 515.223176 278.828303 
L 515.68892 198.46416 
L 516.154664 279.663323 
L 516.620408 257.163929 
L 517.086151 243.971551 
L 517.551895 271.376565 
L 518.017639 259.714528 
L 518.483383 232.616396 
L 518.949127 292.695473 
L 519.414871 271.37473 
L 519.880615 258.393849 
L 520.346359 265.649976 
L 520.812103 206.458619 
L 521.277847 222.631838 
L 521.74359 251.743482 
L 522.209334 269.794384 
L 522.675078 293.089363 
L 523.140822 285.548916 
L 523.606566 276.161639 
L 524.07231 289.401241 
L 524.538054 263.991507 
L 525.003798 245.760048 
L 525.469542 243.525732 
L 525.935286 223.969787 
L 526.401029 257.207521 
L 526.866773 219.759129 
L 527.332517 229.699802 
L 527.798261 289.085593 
L 528.264005 265.948839 
L 528.729749 269.612205 
L 529.195493 206.339567 
L 529.661237 308.088087 
L 530.126981 308.993704 
L 530.592724 257.534859 
L 531.058468 283.227283 
L 531.524212 169.222814 
L 531.989956 245.439703 
L 532.4557 210.54579 
L 532.921444 217.513648 
L 533.387188 249.397299 
L 533.852932 304.025323 
L 534.318676 254.318727 
L 534.78442 240.96113 
L 535.250163 215.645558 
L 535.715907 275.446379 
L 536.181651 242.703857 
L 536.647395 265.25963 
L 537.113139 272.734804 
L 537.578883 243.355809 
L 538.044627 325.746501 
L 538.510371 204.846388 
L 538.976115 255.764697 
L 539.441859 238.724088 
L 539.907602 203.33989 
L 540.373346 291.676732 
L 540.83909 250.609011 
L 541.304834 258.892756 
L 541.770578 260.700399 
L 542.236322 228.442726 
L 542.702066 237.110046 
L 543.16781 273.059497 
L 543.633554 320.677041 
L 544.565041 192.036965 
L 545.030785 267.692775 
L 545.496529 270.861159 
L 546.428017 225.753952 
L 546.893761 242.197662 
L 547.359505 247.964195 
L 547.825249 299.796379 
L 548.290993 223.596751 
L 548.756736 302.762072 
L 549.22248 301.606349 
L 549.688224 236.287201 
L 550.153968 248.462602 
L 550.619712 268.412414 
L 551.085456 337.311437 
L 551.5512 263.459228 
L 552.016944 309.144078 
L 552.482688 279.741835 
L 552.948432 236.297024 
L 553.414175 248.954921 
L 553.879919 275.78002 
L 554.345663 238.118081 
L 555.277151 259.048884 
L 555.742895 247.457626 
L 556.208639 272.0474 
L 556.674383 251.121549 
L 557.140127 317.773651 
L 557.60587 308.603887 
L 558.071614 276.699378 
L 558.537358 291.870156 
L 559.003102 238.275202 
L 559.468846 270.687738 
L 559.93459 229.077121 
L 560.400334 292.742029 
L 560.866078 270.835934 
L 561.331822 208.476518 
L 561.797566 293.626895 
L 562.263309 272.133796 
L 562.729053 257.504452 
L 563.194797 284.465674 
L 563.660541 232.546936 
L 564.126285 304.640732 
L 564.592029 256.087005 
L 565.057773 266.380201 
L 565.523517 247.347252 
L 565.989261 208.069149 
L 566.455005 291.12793 
L 566.920748 312.898231 
L 567.386492 246.549736 
L 567.852236 253.478914 
L 568.783724 221.319893 
L 569.715212 312.065265 
L 570.180956 203.901471 
L 570.6467 184.840317 
L 571.112443 261.858323 
L 571.578187 277.351687 
L 572.043931 280.98409 
L 572.509675 209.375102 
L 572.975419 286.31543 
L 573.441163 250.816057 
L 573.906907 314.388576 
L 574.372651 255.618258 
L 574.838395 237.432044 
L 575.304139 250.70922 
L 575.769882 270.901588 
L 576.235626 236.248036 
L 576.70137 227.982379 
L 577.167114 207.740666 
L 577.632858 305.378365 
L 578.564346 214.33002 
L 579.03009 304.115733 
L 579.495834 250.72142 
L 579.961578 259.912546 
L 580.427321 244.814845 
L 580.893065 293.579489 
L 581.358809 239.929935 
L 581.824553 201.423193 
L 582.290297 302.412043 
L 582.756041 267.988641 
L 583.221785 284.269007 
L 583.687529 273.120724 
L 584.153273 179.240115 
L 584.619016 239.317411 
L 585.08476 235.793507 
L 585.550504 289.796116 
L 586.016248 246.994554 
L 586.481992 274.708198 
L 586.947736 233.327436 
L 587.879224 227.869875 
L 588.344968 268.578022 
L 588.810712 262.976406 
L 589.276455 220.99807 
L 589.742199 324.990804 
L 590.207943 207.866172 
L 590.673687 265.523342 
L 591.139431 239.231007 
L 591.605175 243.663151 
L 592.070919 210.360678 
L 592.536663 248.314526 
L 593.002407 319.642635 
L 593.468151 251.157908 
L 593.933894 222.599301 
L 594.399638 283.947605 
L 594.865382 272.234355 
L 595.331126 276.87686 
L 595.79687 251.319638 
L 596.262614 306.655516 
L 596.728358 224.536518 
L 597.194102 169.994286 
L 597.659846 288.639559 
L 598.125589 250.917665 
L 599.057077 308.420441 
L 599.522821 251.760204 
L 599.988565 254.138487 
L 600.454309 269.973455 
L 600.920053 241.91006 
L 601.385797 290.494934 
L 601.851541 239.024485 
L 602.317285 301.907692 
L 602.783028 221.078116 
L 603.248772 273.216522 
L 603.714516 241.670469 
L 604.646004 270.612413 
L 605.111748 254.788133 
L 605.577492 223.741537 
L 606.043236 311.46802 
L 606.50898 210.379879 
L 606.974724 253.098121 
L 607.440467 285.523445 
L 607.906211 249.7031 
L 608.371955 259.756324 
L 608.837699 240.53661 
L 609.303443 199.992975 
L 609.769187 252.189405 
L 610.234931 269.194528 
L 610.700675 297.744417 
L 611.166419 256.633478 
L 611.632162 237.546534 
L 612.097906 235.50519 
L 612.56365 223.451218 
L 613.029394 294.604214 
L 613.495138 271.356927 
L 613.960882 281.631559 
L 614.426626 254.25661 
L 614.89237 211.836833 
L 615.358114 316.570606 
L 615.823858 202.845783 
L 616.289601 312.228752 
L 616.755345 256.04513 
L 617.221089 277.394603 
L 617.686833 252.124832 
L 618.152577 214.127138 
L 619.084065 281.395099 
L 619.549809 278.268033 
L 620.015553 311.581875 
L 620.481297 271.440669 
L 620.94704 283.982852 
L 621.412784 269.371295 
L 621.878528 200.340706 
L 622.344272 278.22046 
L 622.810016 265.180386 
L 623.27576 238.177862 
L 623.741504 293.191479 
L 624.207248 194.620944 
L 624.672992 247.152175 
L 625.138735 259.884015 
L 626.070223 226.532451 
L 626.535967 237.778408 
L 627.001711 281.94758 
L 627.467455 246.810904 
L 627.933199 286.424922 
L 628.398943 291.31878 
L 628.864687 279.004966 
L 629.330431 224.283027 
L 629.796174 222.505172 
L 630.261918 265.538696 
L 630.727662 285.293653 
L 631.193406 255.306957 
L 631.65915 310.60917 
L 632.124894 238.816485 
L 632.590638 301.218173 
L 633.522126 182.941025 
L 633.98787 317.927108 
L 634.453613 259.687674 
L 634.919357 230.125673 
L 635.385101 252.418322 
L 635.850845 291.246196 
L 636.316589 272.601033 
L 636.782333 179.184896 
L 637.248077 313.412636 
L 637.713821 264.55792 
L 638.645308 221.080023 
L 639.111052 306.931172 
L 639.576796 239.623117 
L 640.04254 227.712627 
L 640.508284 253.491002 
L 640.974028 329.856441 
L 641.439772 234.713372 
L 641.905516 269.614971 
L 642.37126 230.718026 
L 643.302747 285.33041 
L 643.768491 277.333098 
L 644.234235 200.850486 
L 644.699979 255.35666 
L 645.165723 233.086598 
L 645.631467 240.364087 
L 646.097211 253.875181 
L 646.562955 277.498349 
L 647.028699 270.5907 
L 647.494443 250.318398 
L 647.960186 290.458359 
L 648.42593 299.422834 
L 648.891674 294.466604 
L 649.357418 332.989142 
L 650.288906 238.4805 
L 650.75465 316.167878 
L 651.220394 281.416692 
L 651.686138 227.900155 
L 652.151881 265.911812 
L 652.617625 286.812819 
L 653.083369 225.992614 
L 653.549113 320.010943 
L 654.014857 263.503686 
L 654.480601 234.606161 
L 654.946345 247.888941 
L 655.412089 206.543625 
L 655.877833 201.727087 
L 656.343577 255.171581 
L 656.80932 252.577549 
L 657.275064 234.376512 
L 658.206552 278.010664 
L 658.672296 250.113473 
L 659.13804 231.301542 
L 659.603784 197.420218 
L 660.069528 256.523613 
L 660.535272 274.640875 
L 661.001016 304.316573 
L 661.466759 244.541207 
L 661.932503 216.237561 
L 662.398247 290.892957 
L 662.863991 204.895742 
L 663.329735 247.6895 
L 663.795479 238.853552 
L 664.261223 265.087847 
L 664.726967 336.10077 
L 665.192711 253.060156 
L 665.658454 282.998126 
L 666.589942 207.136407 
L 667.055686 340.773363 
L 667.52143 275.740187 
L 667.987174 295.939191 
L 668.452918 215.605805 
L 668.918662 308.695763 
L 669.384406 270.552489 
L 669.85015 273.585012 
L 670.315893 179.212251 
L 670.781637 252.428447 
L 671.247381 301.514374 
L 672.178869 230.826604 
L 672.644613 245.607418 
L 673.110357 220.921806 
L 673.576101 299.934878 
L 674.041845 285.925537 
L 674.507589 315.36779 
L 674.973332 254.943887 
L 675.439076 257.613658 
L 675.90482 299.068617 
L 676.370564 299.96693 
L 676.836308 273.173121 
L 677.302052 255.050184 
L 677.767796 266.87268 
L 678.23354 242.327579 
L 678.699284 237.651027 
L 679.165027 261.621203 
L 679.630771 229.15375 
L 680.096515 209.180088 
L 680.562259 250.513523 
L 681.028003 246.436851 
L 681.493747 278.45897 
L 681.959491 237.585159 
L 682.425235 223.590536 
L 683.356723 322.63694 
L 683.822466 239.757429 
L 684.28821 226.467218 
L 684.753954 238.728348 
L 685.219698 246.646742 
L 685.685442 312.373518 
L 686.151186 253.778898 
L 686.61693 259.619223 
L 687.082674 274.078031 
L 687.548418 254.417783 
L 688.014162 265.802551 
L 688.479905 290.528893 
L 689.411393 225.949189 
L 689.877137 254.198156 
L 690.342881 242.662284 
L 690.808625 244.302848 
L 691.274369 275.250944 
L 691.740113 268.878165 
L 692.205857 273.109581 
L 692.6716 262.188316 
L 693.137344 242.476633 
L 693.603088 255.594384 
L 694.068832 286.609572 
L 694.534576 242.583557 
L 695.00032 258.266396 
L 695.466064 267.432139 
L 695.931808 266.786855 
L 696.397552 227.126394 
L 696.863296 276.853757 
L 697.329039 228.828001 
L 697.794783 251.567638 
L 698.260527 241.299054 
L 698.726271 238.829853 
L 699.192015 255.05771 
L 699.657759 258.904201 
L 700.123503 239.833088 
L 700.589247 288.111787 
L 701.054991 286.932706 
L 701.520735 302.571962 
L 701.986478 262.625519 
L 702.452222 251.28401 
L 703.38371 260.009036 
L 703.849454 218.262041 
L 704.315198 251.388352 
L 704.780942 250.978082 
L 705.246686 246.606497 
L 705.71243 255.436349 
L 706.643917 191.524547 
L 707.109661 267.714709 
L 707.575405 223.802987 
L 708.041149 290.301334 
L 708.972637 274.682504 
L 709.438381 303.672275 
L 709.904125 301.831102 
L 710.369869 239.352571 
L 710.835612 286.694013 
L 711.301356 250.275497 
L 711.7671 305.73971 
L 712.232844 320.507367 
L 712.698588 255.561863 
L 713.164332 263.99165 
L 713.630076 260.085498 
L 714.09582 289.231325 
L 714.561564 311.248258 
L 715.027308 294.522467 
L 715.493051 264.558206 
L 715.958795 261.811544 
L 716.424539 256.812756 
L 716.890283 216.056122 
L 717.356027 254.892563 
L 717.821771 312.789951 
L 718.287515 264.873195 
L 718.753259 261.700797 
L 719.219003 204.865701 
L 719.684746 248.672724 
L 720.15049 325.022423 
L 720.616234 194.651462 
L 721.081978 292.119983 
L 721.547722 249.530832 
L 722.013466 285.404337 
L 722.47921 255.003779 
L 722.944954 307.508648 
L 723.410698 216.456068 
L 723.876442 245.343333 
L 724.342185 264.924893 
L 724.807929 301.949074 
L 725.273673 292.375612 
L 725.739417 299.429851 
L 726.205161 256.089453 
L 726.670905 329.986584 
L 727.136649 249.399373 
L 727.602393 245.532219 
L 728.068137 266.836225 
L 728.533881 263.138367 
L 728.999624 285.359712 
L 729.465368 278.498095 
L 729.931112 247.187724 
L 730.396856 273.977822 
L 730.8626 239.992943 
L 731.328344 266.268437 
L 731.794088 277.986686 
L 732.259832 266.730317 
L 732.725576 262.300001 
L 733.191319 251.218539 
L 733.657063 246.375807 
L 734.122807 227.786221 
L 734.588551 296.090533 
L 735.054295 260.226358 
L 735.520039 296.113223 
L 735.985783 257.572586 
L 736.451527 266.647895 
L 736.917271 290.822447 
L 737.383015 253.430045 
L 737.848758 248.501378 
L 738.314502 217.747048 
L 738.780246 247.674209 
L 739.24599 258.710284 
L 739.711734 283.386938 
L 740.177478 285.292962 
L 740.643222 281.494052 
L 741.108966 284.059934 
L 741.57471 188.437512 
L 742.040454 238.823161 
L 742.506197 181.24444 
L 742.971941 314.478112 
L 743.437685 249.948707 
L 743.903429 272.088599 
L 744.369173 280.709061 
L 744.834917 214.146117 
L 745.300661 231.531795 
L 745.766405 217.142614 
L 746.232149 259.752477 
L 746.697892 227.627526 
L 747.163636 306.77731 
L 747.163636 306.77731 
" clip-path="url(#p17233be1e8)" style="fill: none; stroke: #ff7f0e; stroke-width: 1.5; stroke-linecap: square"/>
   </g>
   <g id="patch_3">
    <path d="M 108 384.48 
L 108 51.84 
" style="fill: none; stroke: #000000; stroke-width: 0.8; stroke-linejoin: miter; stroke-linecap: square"/>
   </g>
   <g id="patch_4">
    <path d="M 777.6 384.48 
L 777.6 51.84 
" style="fill: none; stroke: #000000; stroke-width: 0.8; stroke-linejoin: miter; stroke-linecap: square"/>
   </g>
   <g id="patch_5">
    <path d="M 108 384.48 
L 777.6 384.48 
" style="fill: none; stroke: #000000; stroke-width: 0.8; stroke-linejoin: miter; stroke-linecap: square"/>
   </g>
   <g id="patch_6">
    <path d="M 108 51.84 
L 777.6 51.84 
" style="fill: none; stroke: #000000; stroke-width: 0.8; stroke-linejoin: miter; stroke-linecap: square"/>
   </g>
   <g id="text_15">
    <!-- Regresso: Real vs Previsto -->
    <g transform="translate(360.520313 45.84) scale(0.12 -0.12)">
     <defs>
      <path id="DejaVuSans-52" d="M 2841 2188 
Q 3044 2119 3236 1894 
Q 3428 1669 3622 1275 
L 4263 0 
L 3584 0 
L 2988 1197 
Q 2756 1666 2539 1819 
Q 2322 1972 1947 1972 
L 1259 1972 
L 1259 0 
L 628 0 
L 628 4666 
L 2053 4666 
Q 2853 4666 3247 4331 
Q 3641 3997 3641 3322 
Q 3641 2881 3436 2590 
Q 3231 2300 2841 2188 
z
M 1259 4147 
L 1259 2491 
L 2053 2491 
Q 2509 2491 2742 2702 
Q 2975 2913 2975 3322 
Q 2975 3731 2742 3939 
Q 2509 4147 2053 4147 
L 1259 4147 
z
" transform="scale(0.015625)"/>
      <path id="DejaVuSans-65" d="M 3597 1894 
L 3597 1613 
L 953 1613 
Q 991 1019 1311 708 
Q 1631 397 2203 397 
Q 2534 397 2845 478 
Q 3156 559 3463 722 
L 3463 178 
Q 3153 47 2828 -22 
Q 2503 -91 2169 -91 
Q 1331 -91 842 396 
Q 353 884 353 1716 
Q 353 2575 817 3079 
Q 1281 3584 2069 3584 
Q 2775 3584 3186 3129 
Q 3597 2675 3597 1894 
z
M 3022 2063 
Q 3016 2534 2758 2815 
Q 2500 3097 2075 3097 
Q 1594 3097 1305 2825 
Q 1016 2553 972 2059 
L 3022 2063 
z
" transform="scale(0.015625)"/>
      <path id="DejaVuSans-67" d="M 2906 1791 
Q 2906 2416 2648 2759 
Q 2391 3103 1925 3103 
Q 1463 3103 1205 2759 
Q 947 2416 947 1791 
Q 947 1169 1205 825 
Q 1463 481 1925 481 
Q 2391 481 2648 825 
Q 2906 1169 2906 1791 
z
M 3481 434 
Q 3481 -459 3084 -895 
Q 2688 -1331 1869 -1331 
Q 1566 -1331 1297 -1286 
Q 1028 -1241 775 -1147 
L 775 -588 
Q 1028 -725 1275 -790 
Q 1522 -856 1778 -856 
Q 2344 -856 2625 -561 
Q 2906 -266 2906 331 
L 2906 616 
Q 2728 306 2450 153 
Q 2172 0 1784 0 
Q 1141 0 747 490 
Q 353 981 353 1791 
Q 353 2603 747 3093 
Q 1141 3584 1784 3584 
Q 2172 3584 2450 3431 
Q 2728 3278 2906 2969 
L 2906 3500 
L 3481 3500 
L 3481 434 
z
" transform="scale(0.015625)"/>
      <path id="DejaVuSans-72" d="M 2631 2963 
Q 2534 3019 2420 3045 
Q 2306 3072 2169 3072 
Q 1681 3072 1420 2755 
Q 1159 2438 1159 1844 
L 1159 0 
L 581 0 
L 581 3500 
L 1159 3500 
L 1159 2956 
Q 1341 3275 1631 3429 
Q 1922 3584 2338 3584 
Q 2397 3584 2469 3576 
Q 2541 3569 2628 3553 
L 2631 2963 
z
" transform="scale(0.015625)"/>
      <path id="DejaVuSans-73" d="M 2834 3397 
L 2834 2853 
Q 2591 2978 2328 3040 
Q 2066 3103 1784 3103 
Q 1356 3103 1142 2972 
Q 928 2841 928 2578 
Q 928 2378 1081 2264 
Q 1234 2150 1697 2047 
L 1894 2003 
Q 2506 1872 2764 1633 
Q 3022 1394 3022 966 
Q 3022 478 2636 193 
Q 2250 -91 1575 -91 
Q 1294 -91 989 -36 
Q 684 19 347 128 
L 347 722 
Q 666 556 975 473 
Q 1284 391 1588 391 
Q 1994 391 2212 530 
Q 2431 669 2431 922 
Q 2431 1156 2273 1281 
Q 2116 1406 1581 1522 
L 1381 1569 
Q 847 1681 609 1914 
Q 372 2147 372 2553 
Q 372 3047 722 3315 
Q 1072 3584 1716 3584 
Q 2034 3584 2315 3537 
Q 2597 3491 2834 3397 
z
" transform="scale(0.015625)"/>
      <path id="DejaVuSans-e3" d="M 2194 1759 
Q 1497 1759 1228 1600 
Q 959 1441 959 1056 
Q 959 750 1161 570 
Q 1363 391 1709 391 
Q 2188 391 2477 730 
Q 2766 1069 2766 1631 
L 2766 1759 
L 2194 1759 
z
M 3341 1997 
L 3341 0 
L 2766 0 
L 2766 531 
Q 2569 213 2275 61 
Q 1981 -91 1556 -91 
Q 1019 -91 701 211 
Q 384 513 384 1019 
Q 384 1609 779 1909 
Q 1175 2209 1959 2209 
L 2766 2209 
L 2766 2266 
Q 2766 2663 2505 2880 
Q 2244 3097 1772 3097 
Q 1472 3097 1187 3025 
Q 903 2953 641 2809 
L 641 3341 
Q 956 3463 1253 3523 
Q 1550 3584 1831 3584 
Q 2591 3584 2966 3190 
Q 3341 2797 3341 1997 
z
M 1844 4281 
L 1665 4453 
Q 1597 4516 1545 4545 
Q 1494 4575 1453 4575 
Q 1334 4575 1278 4461 
Q 1222 4347 1215 4091 
L 825 4091 
Q 831 4513 990 4742 
Q 1150 4972 1434 4972 
Q 1553 4972 1653 4928 
Q 1753 4884 1869 4781 
L 2047 4609 
Q 2115 4547 2167 4517 
Q 2219 4488 2259 4488 
Q 2378 4488 2434 4602 
Q 2490 4716 2497 4972 
L 2887 4972 
Q 2881 4550 2721 4320 
Q 2562 4091 2278 4091 
Q 2159 4091 2059 4134 
Q 1959 4178 1844 4281 
z
" transform="scale(0.015625)"/>
      <path id="DejaVuSans-6f" d="M 1959 3097 
Q 1497 3097 1228 2736 
Q 959 2375 959 1747 
Q 959 1119 1226 758 
Q 1494 397 1959 397 
Q 2419 397 2687 759 
Q 2956 1122 2956 1747 
Q 2956 2369 2687 2733 
Q 2419 3097 1959 3097 
z
M 1959 3584 
Q 2709 3584 3137 3096 
Q 3566 2609 3566 1747 
Q 3566 888 3137 398 
Q 2709 -91 1959 -91 
Q 1206 -91 779 398 
Q 353 888 353 1747 
Q 353 2609 779 3096 
Q 1206 3584 1959 3584 
z
" transform="scale(0.015625)"/>
      <path id="DejaVuSans-3a" d="M 750 794 
L 1409 794 
L 1409 0 
L 750 0 
L 750 794 
z
M 750 3309 
L 1409 3309 
L 1409 2516 
L 750 2516 
L 750 3309 
z
" transform="scale(0.015625)"/>
      <path id="DejaVuSans-20" transform="scale(0.015625)"/>
      <path id="DejaVuSans-61" d="M 2194 1759 
Q 1497 1759 1228 1600 
Q 959 1441 959 1056 
Q 959 750 1161 570 
Q 1363 391 1709 391 
Q 2188 391 2477 730 
Q 2766 1069 2766 1631 
L 2766 1759 
L 2194 1759 
z
M 3341 1997 
L 3341 0 
L 2766 0 
L 2766 531 
Q 2569 213 2275 61 
Q 1981 -91 1556 -91 
Q 1019 -91 701 211 
Q 384 513 384 1019 
Q 384 1609 779 1909 
Q 1175 2209 1959 2209 
L 2766 2209 
L 2766 2266 
Q 2766 2663 2505 2880 
Q 2244 3097 1772 3097 
Q 1472 3097 1187 3025 
Q 903 2953 641 2809 
L 641 3341 
Q 956 3463 1253 3523 
Q 1550 3584 1831 3584 
Q 2591 3584 2966 3190 
Q 3341 2797 3341 1997 
z
" transform="scale(0.015625)"/>
      <path id="DejaVuSans-6c" d="M 603 4863 
L 1178 4863 
L 1178 0 
L 603 0 
L 603 4863 
z
" transform="scale(0.015625)"/>
      <path id="DejaVuSans-76" d="M 191 3500 
L 800 3500 
L 1894 563 
L 2988 3500 
L 3597 3500 
L 2284 0 
L 1503 0 
L 191 3500 
z
" transform="scale(0.015625)"/>
      <path id="DejaVuSans-50" d="M 1259 4147 
L 1259 2394 
L 2053 2394 
Q 2494 2394 2734 2622 
Q 2975 2850 2975 3272 
Q 2975 3691 2734 3919 
Q 2494 4147 2053 4147 
L 1259 4147 
z
M 628 4666 
L 2053 4666 
Q 2838 4666 3239 4311 
Q 3641 3956 3641 3272 
Q 3641 2581 3239 2228 
Q 2838 1875 2053 1875 
L 1259 1875 
L 1259 0 
L 628 0 
L 628 4666 
z
" transform="scale(0.015625)"/>
      <path id="DejaVuSans-69" d="M 603 3500 
L 1178 3500 
L 1178 0 
L 603 0 
L 603 3500 
z
M 603 4863 
L 1178 4863 
L 1178 4134 
L 603 4134 
L 603 4863 
z
" transform="scale(0.015625)"/>
      <path id="DejaVuSans-74" d="M 1172 4494 
L 1172 3500 
L 2356 3500 
L 2356 3053 
L 1172 3053 
L 1172 1153 
Q 1172 725 1289 603 
Q 1406 481 1766 481 
L 2356 481 
L 2356 0 
L 1766 0 
Q 1100 0 847 248 
Q 594 497 594 1153 
L 594 3053 
L 172 3053 
L 172 3500 
L 594 3500 
L 594 4494 
L 1172 4494 
z
" transform="scale(0.015625)"/>
     </defs>
     <use xlink:href="#DejaVuSans-52"/>
     <use xlink:href="#DejaVuSans-65" x="64.982422"/>
     <use xlink:href="#DejaVuSans-67" x="126.505859"/>
     <use xlink:href="#DejaVuSans-72" x="189.982422"/>
     <use xlink:href="#DejaVuSans-65" x="228.845703"/>
     <use xlink:href="#DejaVuSans-73" x="290.369141"/>
     <use xlink:href="#DejaVuSans-73" x="342.46875"/>
     <use xlink:href="#DejaVuSans-e3" x="394.568359"/>
     <use xlink:href="#DejaVuSans-6f" x="455.847656"/>
     <use xlink:href="#DejaVuSans-3a" x="517.029297"/>
     <use xlink:href="#DejaVuSans-20" x="550.720703"/>
     <use xlink:href="#DejaVuSans-52" x="582.507812"/>
     <use xlink:href="#DejaVuSans-65" x="647.490234"/>
     <use xlink:href="#DejaVuSans-61" x="709.013672"/>
     <use xlink:href="#DejaVuSans-6c" x="770.292969"/>
     <use xlink:href="#DejaVuSans-20" x="798.076172"/>
     <use xlink:href="#DejaVuSans-76" x="829.863281"/>
     <use xlink:href="#DejaVuSans-73" x="889.042969"/>
     <use xlink:href="#DejaVuSans-20" x="941.142578"/>
     <use xlink:href="#DejaVuSans-50" x="972.929688"/>
     <use xlink:href="#DejaVuSans-72" x="1031.482422"/>
     <use xlink:href="#DejaVuSans-65" x="1070.345703"/>
     <use xlink:href="#DejaVuSans-76" x="1131.869141"/>
     <use xlink:href="#DejaVuSans-69" x="1191.048828"/>
     <use xlink:href="#DejaVuSans-73" x="1218.832031"/>
     <use xlink:href="#DejaVuSans-74" x="1270.931641"/>
     <use xlink:href="#DejaVuSans-6f" x="1310.140625"/>
    </g>
   </g>
   <g id="legend_1">
    <g id="patch_7">
     <path d="M 672.315625 89.19625 
L 770.6 89.19625 
Q 772.6 89.19625 772.6 87.19625 
L 772.6 58.84 
Q 772.6 56.84 770.6 56.84 
L 672.315625 56.84 
Q 670.315625 56.84 670.315625 58.84 
L 670.315625 87.19625 
Q 670.315625 89.19625 672.315625 89.19625 
z
" style="fill: #ffffff; opacity: 0.8; stroke: #cccccc; stroke-linejoin: miter"/>
    </g>
    <g id="line2d_17">
     <path d="M 674.315625 64.938437 
L 684.315625 64.938437 
L 694.315625 64.938437 
" style="fill: none; stroke: #1f77b4; stroke-width: 1.5; stroke-linecap: square"/>
    </g>
    <g id="text_16">
     <!-- Valores Reais -->
     <g transform="translate(702.315625 68.438437) scale(0.1 -0.1)">
      <defs>
       <path id="DejaVuSans-56" d="M 1831 0 
L 50 4666 
L 709 4666 
L 2188 738 
L 3669 4666 
L 4325 4666 
L 2547 0 
L 1831 0 
z
" transform="scale(0.015625)"/>
      </defs>
      <use xlink:href="#DejaVuSans-56"/>
      <use xlink:href="#DejaVuSans-61" x="60.658203"/>
      <use xlink:href="#DejaVuSans-6c" x="121.9375"/>
      <use xlink:href="#DejaVuSans-6f" x="149.720703"/>
      <use xlink:href="#DejaVuSans-72" x="210.902344"/>
      <use xlink:href="#DejaVuSans-65" x="249.765625"/>
      <use xlink:href="#DejaVuSans-73" x="311.289062"/>
      <use xlink:href="#DejaVuSans-20" x="363.388672"/>
      <use xlink:href="#DejaVuSans-52" x="395.175781"/>
      <use xlink:href="#DejaVuSans-65" x="460.158203"/>
      <use xlink:href="#DejaVuSans-61" x="521.681641"/>
      <use xlink:href="#DejaVuSans-69" x="582.960938"/>
      <use xlink:href="#DejaVuSans-73" x="610.744141"/>
     </g>
    </g>
    <g id="line2d_18">
     <path d="M 674.315625 79.616562 
L 684.315625 79.616562 
L 694.315625 79.616562 
" style="fill: none; stroke: #ff7f0e; stroke-width: 1.5; stroke-linecap: square"/>
    </g>
    <g id="text_17">
     <!-- Previses -->
     <g transform="translate(702.315625 83.116562) scale(0.1 -0.1)">
      <defs>
       <path id="DejaVuSans-f5" d="M 1959 3097 
Q 1497 3097 1228 2736 
Q 959 2375 959 1747 
Q 959 1119 1226 758 
Q 1494 397 1959 397 
Q 2419 397 2687 759 
Q 2956 1122 2956 1747 
Q 2956 2369 2687 2733 
Q 2419 3097 1959 3097 
z
M 1959 3584 
Q 2709 3584 3137 3096 
Q 3566 2609 3566 1747 
Q 3566 888 3137 398 
Q 2709 -91 1959 -91 
Q 1206 -91 779 398 
Q 353 888 353 1747 
Q 353 2609 779 3096 
Q 1206 3584 1959 3584 
z
M 1948 4281 
L 1769 4453 
Q 1701 4516 1649 4545 
Q 1598 4575 1557 4575 
Q 1438 4575 1382 4461 
Q 1326 4347 1319 4091 
L 929 4091 
Q 935 4513 1094 4742 
Q 1254 4972 1538 4972 
Q 1657 4972 1757 4928 
Q 1857 4884 1973 4781 
L 2151 4609 
Q 2219 4547 2271 4517 
Q 2323 4488 2363 4488 
Q 2482 4488 2538 4602 
Q 2594 4716 2601 4972 
L 2991 4972 
Q 2985 4550 2825 4320 
Q 2666 4091 2382 4091 
Q 2263 4091 2163 4134 
Q 2063 4178 1948 4281 
z
" transform="scale(0.015625)"/>
      </defs>
      <use xlink:href="#DejaVuSans-50"/>
      <use xlink:href="#DejaVuSans-72" x="58.552734"/>
      <use xlink:href="#DejaVuSans-65" x="97.416016"/>
      <use xlink:href="#DejaVuSans-76" x="158.939453"/>
      <use xlink:href="#DejaVuSans-69" x="218.119141"/>
      <use xlink:href="#DejaVuSans-73" x="245.902344"/>
      <use xlink:href="#DejaVuSans-f5" x="298.001953"/>
      <use xlink:href="#DejaVuSans-65" x="359.183594"/>
      <use xlink:href="#DejaVuSans-73" x="420.707031"/>
     </g>
    </g>
   </g>
  </g>
 </g>
 <defs>
  <clipPath id="p17233be1e8">
   <rect x="108" y="51.84" width="669.6" height="332.64"/>
  </clipPath>
 </defs>
</svg>
