<?xml version="1.0" encoding="utf-8" standalone="no"?>
<!DOCTYPE svg PUBLIC "-//W3C//DTD SVG 1.1//EN"
  "http://www.w3.org/Graphics/SVG/1.1/DTD/svg11.dtd">
<svg xmlns:xlink="http://www.w3.org/1999/xlink" width="864pt" height="432pt" viewBox="0 0 864 432" xmlns="http://www.w3.org/2000/svg" version="1.1">
 <metadata>
  <rdf:RDF xmlns:dc="http://purl.org/dc/elements/1.1/" xmlns:cc="http://creativecommons.org/ns#" xmlns:rdf="http://www.w3.org/1999/02/22-rdf-syntax-ns#">
   <cc:Work>
    <dc:type rdf:resource="http://purl.org/dc/dcmitype/StillImage"/>
    <dc:date>2024-11-23T17:06:53.620086</dc:date>
    <dc:format>image/svg+xml</dc:format>
    <dc:creator>
     <cc:Agent>
      <dc:title>Matplotlib v3.9.2, https://matplotlib.org/</dc:title>
     </cc:Agent>
    </dc:creator>
   </cc:Work>
  </rdf:RDF>
 </metadata>
 <defs>
  <style type="text/css">*{stroke-linejoin: round; stroke-linecap: butt}</style>
 </defs>
 <g id="figure_1">
  <g id="patch_1">
   <path d="M 0 432 
L 864 432 
L 864 0 
L 0 0 
z
" style="fill: #ffffff"/>
  </g>
  <g id="axes_1">
   <g id="patch_2">
    <path d="M 108 384.48 
L 777.6 384.48 
L 777.6 51.84 
L 108 51.84 
z
" style="fill: #ffffff"/>
   </g>
   <g id="matplotlib.axis_1">
    <g id="xtick_1">
     <g id="line2d_1">
      <defs>
       <path id="me18179a967" d="M 0 0 
L 0 3.5 
" style="stroke: #000000; stroke-width: 0.8"/>
      </defs>
      <g>
       <use xlink:href="#me18179a967" x="138.436364" y="384.48" style="stroke: #000000; stroke-width: 0.8"/>
      </g>
     </g>
     <g id="text_1">
      <!-- 0 -->
      <g transform="translate(135.255114 399.078438) scale(0.1 -0.1)">
       <defs>
        <path id="DejaVuSans-30" d="M 2034 4250 
Q 1547 4250 1301 3770 
Q 1056 3291 1056 2328 
Q 1056 1369 1301 889 
Q 1547 409 2034 409 
Q 2525 409 2770 889 
Q 3016 1369 3016 2328 
Q 3016 3291 2770 3770 
Q 2525 4250 2034 4250 
z
M 2034 4750 
Q 2819 4750 3233 4129 
Q 3647 3509 3647 2328 
Q 3647 1150 3233 529 
Q 2819 -91 2034 -91 
Q 1250 -91 836 529 
Q 422 1150 422 2328 
Q 422 3509 836 4129 
Q 1250 4750 2034 4750 
z
" transform="scale(0.015625)"/>
       </defs>
       <use xlink:href="#DejaVuSans-30"/>
      </g>
     </g>
    </g>
    <g id="xtick_2">
     <g id="line2d_2">
      <g>
       <use xlink:href="#me18179a967" x="261.151266" y="384.48" style="stroke: #000000; stroke-width: 0.8"/>
      </g>
     </g>
     <g id="text_2">
      <!-- 2000 -->
      <g transform="translate(248.426266 399.078438) scale(0.1 -0.1)">
       <defs>
        <path id="DejaVuSans-32" d="M 1228 531 
L 3431 531 
L 3431 0 
L 469 0 
L 469 531 
Q 828 903 1448 1529 
Q 2069 2156 2228 2338 
Q 2531 2678 2651 2914 
Q 2772 3150 2772 3378 
Q 2772 3750 2511 3984 
Q 2250 4219 1831 4219 
Q 1534 4219 1204 4116 
Q 875 4013 500 3803 
L 500 4441 
Q 881 4594 1212 4672 
Q 1544 4750 1819 4750 
Q 2544 4750 2975 4387 
Q 3406 4025 3406 3419 
Q 3406 3131 3298 2873 
Q 3191 2616 2906 2266 
Q 2828 2175 2409 1742 
Q 1991 1309 1228 531 
z
" transform="scale(0.015625)"/>
       </defs>
       <use xlink:href="#DejaVuSans-32"/>
       <use xlink:href="#DejaVuSans-30" x="63.623047"/>
       <use xlink:href="#DejaVuSans-30" x="127.246094"/>
       <use xlink:href="#DejaVuSans-30" x="190.869141"/>
      </g>
     </g>
    </g>
    <g id="xtick_3">
     <g id="line2d_3">
      <g>
       <use xlink:href="#me18179a967" x="383.866168" y="384.48" style="stroke: #000000; stroke-width: 0.8"/>
      </g>
     </g>
     <g id="text_3">
      <!-- 4000 -->
      <g transform="translate(371.141168 399.078438) scale(0.1 -0.1)">
       <defs>
        <path id="DejaVuSans-34" d="M 2419 4116 
L 825 1625 
L 2419 1625 
L 2419 4116 
z
M 2253 4666 
L 3047 4666 
L 3047 1625 
L 3713 1625 
L 3713 1100 
L 3047 1100 
L 3047 0 
L 2419 0 
L 2419 1100 
L 313 1100 
L 313 1709 
L 2253 4666 
z
" transform="scale(0.015625)"/>
       </defs>
       <use xlink:href="#DejaVuSans-34"/>
       <use xlink:href="#DejaVuSans-30" x="63.623047"/>
       <use xlink:href="#DejaVuSans-30" x="127.246094"/>
       <use xlink:href="#DejaVuSans-30" x="190.869141"/>
      </g>
     </g>
    </g>
    <g id="xtick_4">
     <g id="line2d_4">
      <g>
       <use xlink:href="#me18179a967" x="506.58107" y="384.48" style="stroke: #000000; stroke-width: 0.8"/>
      </g>
     </g>
     <g id="text_4">
      <!-- 6000 -->
      <g transform="translate(493.85607 399.078438) scale(0.1 -0.1)">
       <defs>
        <path id="DejaVuSans-36" d="M 2113 2584 
Q 1688 2584 1439 2293 
Q 1191 2003 1191 1497 
Q 1191 994 1439 701 
Q 1688 409 2113 409 
Q 2538 409 2786 701 
Q 3034 994 3034 1497 
Q 3034 2003 2786 2293 
Q 2538 2584 2113 2584 
z
M 3366 4563 
L 3366 3988 
Q 3128 4100 2886 4159 
Q 2644 4219 2406 4219 
Q 1781 4219 1451 3797 
Q 1122 3375 1075 2522 
Q 1259 2794 1537 2939 
Q 1816 3084 2150 3084 
Q 2853 3084 3261 2657 
Q 3669 2231 3669 1497 
Q 3669 778 3244 343 
Q 2819 -91 2113 -91 
Q 1303 -91 875 529 
Q 447 1150 447 2328 
Q 447 3434 972 4092 
Q 1497 4750 2381 4750 
Q 2619 4750 2861 4703 
Q 3103 4656 3366 4563 
z
" transform="scale(0.015625)"/>
       </defs>
       <use xlink:href="#DejaVuSans-36"/>
       <use xlink:href="#DejaVuSans-30" x="63.623047"/>
       <use xlink:href="#DejaVuSans-30" x="127.246094"/>
       <use xlink:href="#DejaVuSans-30" x="190.869141"/>
      </g>
     </g>
    </g>
    <g id="xtick_5">
     <g id="line2d_5">
      <g>
       <use xlink:href="#me18179a967" x="629.295973" y="384.48" style="stroke: #000000; stroke-width: 0.8"/>
      </g>
     </g>
     <g id="text_5">
      <!-- 8000 -->
      <g transform="translate(616.570973 399.078438) scale(0.1 -0.1)">
       <defs>
        <path id="DejaVuSans-38" d="M 2034 2216 
Q 1584 2216 1326 1975 
Q 1069 1734 1069 1313 
Q 1069 891 1326 650 
Q 1584 409 2034 409 
Q 2484 409 2743 651 
Q 3003 894 3003 1313 
Q 3003 1734 2745 1975 
Q 2488 2216 2034 2216 
z
M 1403 2484 
Q 997 2584 770 2862 
Q 544 3141 544 3541 
Q 544 4100 942 4425 
Q 1341 4750 2034 4750 
Q 2731 4750 3128 4425 
Q 3525 4100 3525 3541 
Q 3525 3141 3298 2862 
Q 3072 2584 2669 2484 
Q 3125 2378 3379 2068 
Q 3634 1759 3634 1313 
Q 3634 634 3220 271 
Q 2806 -91 2034 -91 
Q 1263 -91 848 271 
Q 434 634 434 1313 
Q 434 1759 690 2068 
Q 947 2378 1403 2484 
z
M 1172 3481 
Q 1172 3119 1398 2916 
Q 1625 2713 2034 2713 
Q 2441 2713 2670 2916 
Q 2900 3119 2900 3481 
Q 2900 3844 2670 4047 
Q 2441 4250 2034 4250 
Q 1625 4250 1398 4047 
Q 1172 3844 1172 3481 
z
" transform="scale(0.015625)"/>
       </defs>
       <use xlink:href="#DejaVuSans-38"/>
       <use xlink:href="#DejaVuSans-30" x="63.623047"/>
       <use xlink:href="#DejaVuSans-30" x="127.246094"/>
       <use xlink:href="#DejaVuSans-30" x="190.869141"/>
      </g>
     </g>
    </g>
    <g id="xtick_6">
     <g id="line2d_6">
      <g>
       <use xlink:href="#me18179a967" x="752.010875" y="384.48" style="stroke: #000000; stroke-width: 0.8"/>
      </g>
     </g>
     <g id="text_6">
      <!-- 10000 -->
      <g transform="translate(736.104625 399.078438) scale(0.1 -0.1)">
       <defs>
        <path id="DejaVuSans-31" d="M 794 531 
L 1825 531 
L 1825 4091 
L 703 3866 
L 703 4441 
L 1819 4666 
L 2450 4666 
L 2450 531 
L 3481 531 
L 3481 0 
L 794 0 
L 794 531 
z
" transform="scale(0.015625)"/>
       </defs>
       <use xlink:href="#DejaVuSans-31"/>
       <use xlink:href="#DejaVuSans-30" x="63.623047"/>
       <use xlink:href="#DejaVuSans-30" x="127.246094"/>
       <use xlink:href="#DejaVuSans-30" x="190.869141"/>
       <use xlink:href="#DejaVuSans-30" x="254.492188"/>
      </g>
     </g>
    </g>
   </g>
   <g id="matplotlib.axis_2">
    <g id="ytick_1">
     <g id="line2d_7">
      <defs>
       <path id="m8837ae981f" d="M 0 0 
L -3.5 0 
" style="stroke: #000000; stroke-width: 0.8"/>
      </defs>
      <g>
       <use xlink:href="#m8837ae981f" x="108" y="374.4" style="stroke: #000000; stroke-width: 0.8"/>
      </g>
     </g>
     <g id="text_7">
      <!-- 0 -->
      <g transform="translate(94.6375 378.199219) scale(0.1 -0.1)">
       <use xlink:href="#DejaVuSans-30"/>
      </g>
     </g>
    </g>
    <g id="ytick_2">
     <g id="line2d_8">
      <g>
       <use xlink:href="#m8837ae981f" x="108" y="318.843465" style="stroke: #000000; stroke-width: 0.8"/>
      </g>
     </g>
     <g id="text_8">
      <!-- 50 -->
      <g transform="translate(88.275 322.642683) scale(0.1 -0.1)">
       <defs>
        <path id="DejaVuSans-35" d="M 691 4666 
L 3169 4666 
L 3169 4134 
L 1269 4134 
L 1269 2991 
Q 1406 3038 1543 3061 
Q 1681 3084 1819 3084 
Q 2600 3084 3056 2656 
Q 3513 2228 3513 1497 
Q 3513 744 3044 326 
Q 2575 -91 1722 -91 
Q 1428 -91 1123 -41 
Q 819 9 494 109 
L 494 744 
Q 775 591 1075 516 
Q 1375 441 1709 441 
Q 2250 441 2565 725 
Q 2881 1009 2881 1497 
Q 2881 1984 2565 2268 
Q 2250 2553 1709 2553 
Q 1456 2553 1204 2497 
Q 953 2441 691 2322 
L 691 4666 
z
" transform="scale(0.015625)"/>
       </defs>
       <use xlink:href="#DejaVuSans-35"/>
       <use xlink:href="#DejaVuSans-30" x="63.623047"/>
      </g>
     </g>
    </g>
    <g id="ytick_3">
     <g id="line2d_9">
      <g>
       <use xlink:href="#m8837ae981f" x="108" y="263.286929" style="stroke: #000000; stroke-width: 0.8"/>
      </g>
     </g>
     <g id="text_9">
      <!-- 100 -->
      <g transform="translate(81.9125 267.086148) scale(0.1 -0.1)">
       <use xlink:href="#DejaVuSans-31"/>
       <use xlink:href="#DejaVuSans-30" x="63.623047"/>
       <use xlink:href="#DejaVuSans-30" x="127.246094"/>
      </g>
     </g>
    </g>
    <g id="ytick_4">
     <g id="line2d_10">
      <g>
       <use xlink:href="#m8837ae981f" x="108" y="207.730394" style="stroke: #000000; stroke-width: 0.8"/>
      </g>
     </g>
     <g id="text_10">
      <!-- 150 -->
      <g transform="translate(81.9125 211.529613) scale(0.1 -0.1)">
       <use xlink:href="#DejaVuSans-31"/>
       <use xlink:href="#DejaVuSans-35" x="63.623047"/>
       <use xlink:href="#DejaVuSans-30" x="127.246094"/>
      </g>
     </g>
    </g>
    <g id="ytick_5">
     <g id="line2d_11">
      <g>
       <use xlink:href="#m8837ae981f" x="108" y="152.173858" style="stroke: #000000; stroke-width: 0.8"/>
      </g>
     </g>
     <g id="text_11">
      <!-- 200 -->
      <g transform="translate(81.9125 155.973077) scale(0.1 -0.1)">
       <use xlink:href="#DejaVuSans-32"/>
       <use xlink:href="#DejaVuSans-30" x="63.623047"/>
       <use xlink:href="#DejaVuSans-30" x="127.246094"/>
      </g>
     </g>
    </g>
    <g id="ytick_6">
     <g id="line2d_12">
      <g>
       <use xlink:href="#m8837ae981f" x="108" y="96.617323" style="stroke: #000000; stroke-width: 0.8"/>
      </g>
     </g>
     <g id="text_12">
      <!-- 250 -->
      <g transform="translate(81.9125 100.416542) scale(0.1 -0.1)">
       <use xlink:href="#DejaVuSans-32"/>
       <use xlink:href="#DejaVuSans-35" x="63.623047"/>
       <use xlink:href="#DejaVuSans-30" x="127.246094"/>
      </g>
     </g>
    </g>
   </g>
   <g id="line2d_13">
    <path d="M 138.436364 208.743158 
L 138.497721 330.624256 
L 138.559079 252.6 
L 138.620436 351.138462 
L 138.681793 316.692 
L 138.743151 213.12 
L 138.804508 260.224615 
L 138.865866 275.527059 
L 138.927223 116.8 
L 138.988581 302.832 
L 139.049938 234.54 
L 139.172653 276.12 
L 139.234011 270.576 
L 139.295368 94.68 
L 139.47944 324 
L 139.602155 213.12 
L 139.72487 281.16 
L 139.786228 235.8 
L 139.847585 342.827425 
L 139.908942 310.14 
L 140.031657 323.262961 
L 140.154372 308.88 
L 140.21573 336.897532 
L 140.277087 286.2 
L 140.338445 297.12 
L 140.46116 318.96 
L 140.522517 306.36 
L 140.645232 261.84 
L 140.706589 256.716 
L 140.767947 363.312 
L 140.829304 208.743158 
L 140.890662 258.594124 
L 140.952019 318.96 
L 141.013377 306.36 
L 141.074734 254.888955 
L 141.136091 295.02 
L 141.197449 277.423528 
L 141.258806 305.52 
L 141.320164 288.72 
L 141.381521 250.92 
L 141.442879 281.16 
L 141.504236 316.465208 
L 141.565594 205.28 
L 141.626951 286.2 
L 141.688309 208.743158 
L 141.749666 262.532417 
L 141.811023 198.84 
L 141.933738 327.080347 
L 141.995096 252.6 
L 142.056453 346.68 
L 142.117811 284.722146 
L 142.179168 328.32 
L 142.240526 301.45193 
L 142.424598 184.14 
L 142.60867 356.76 
L 142.670028 212.860451 
L 142.731385 324 
L 142.792743 351.72 
L 142.8541 205.7175 
L 142.915458 274.44 
L 143.09953 321.676747 
L 143.283602 116.8 
L 143.34496 291.465561 
L 143.406317 213.313846 
L 143.467675 245.88 
L 143.529032 359.868618 
L 143.59039 346.68 
L 143.713104 205.7175 
L 143.897177 333.847536 
L 144.019892 251.928 
L 144.081249 306.36 
L 144.142607 253.778266 
L 144.203964 329.04 
L 144.265321 324.87978 
L 144.510751 124.282953 
L 144.572109 325.454091 
L 144.633466 248.799811 
L 144.694824 309.636 
L 144.756181 198.84 
L 144.817539 276.12 
L 144.878896 315.18 
L 144.940253 260.224615 
L 145.001611 328.32 
L 145.062968 213.12 
L 145.124326 276.12 
L 145.185683 291.24 
L 145.247041 282.131608 
L 145.308398 279.210321 
L 145.369756 214.539171 
L 145.431113 261 
L 145.492471 261 
L 145.676543 346.512 
L 145.7379 270.576 
L 145.799258 352.185931 
L 145.860615 213.12 
L 145.921973 306.36 
L 146.044688 203.04 
L 146.167402 352.98 
L 146.290117 309.636 
L 146.412832 344.152032 
L 146.596905 274.44 
L 146.658262 323.37 
L 146.71962 205.7175 
L 146.780977 282 
L 146.842334 329.04 
L 146.903692 242.73 
L 146.965049 250.92 
L 147.087764 303.84 
L 147.210479 236.43 
L 147.271837 252.6 
L 147.333194 253.44 
L 147.394552 266.46 
L 147.455909 121.392 
L 147.639981 351.138462 
L 147.762696 240.84 
L 147.824054 345.848628 
L 147.885411 305.52 
L 147.946769 316.44 
L 148.130841 192.96 
L 148.253556 311.38768 
L 148.314913 308.061 
L 148.376271 311.76 
L 148.437628 275.527059 
L 148.498986 352.98 
L 148.560343 261 
L 148.621701 262.746539 
L 148.683058 281.16 
L 148.744415 352.98 
L 148.805773 351.138462 
L 148.928488 257.85 
L 148.989845 328.32 
L 149.051203 309.636 
L 149.11256 234.830769 
L 149.296632 360.535854 
L 149.35799 213.12 
L 149.419347 247.455 
L 149.542062 347.436 
L 149.60342 329.04 
L 149.664777 208.743158 
L 149.726135 274.813656 
L 149.84885 324.020677 
L 149.910207 252.6 
L 149.971564 254.448 
L 150.032922 261.84 
L 150.216994 349.2 
L 150.278352 121.392 
L 150.401067 368.1 
L 150.462424 241.344 
L 150.523782 336.6 
L 150.585139 331.56 
L 150.646496 306.36 
L 150.707854 352.98 
L 150.830569 121.392 
L 150.891926 330.09 
L 150.953284 268.308 
L 151.075999 284.116403 
L 151.137356 362.718015 
L 151.198713 318.96 
L 151.260071 352.77 
L 151.321428 254.448 
L 151.382786 266.46 
L 151.505501 324 
L 151.566858 170.28 
L 151.628216 358.998194 
L 151.689573 285.36 
L 151.750931 276.12 
L 151.812288 334.08 
L 151.99636 236.434981 
L 152.057718 281.16 
L 152.119075 252.936 
L 152.24179 333.261981 
L 152.425862 120.847391 
L 152.48722 121.392 
L 152.548577 310.14 
L 152.609935 302.832 
L 152.671292 269.663931 
L 152.794007 352.98 
L 152.916722 261 
L 153.039437 324.87978 
L 153.162152 210.6 
L 153.284867 325.714916 
L 153.407582 351.138462 
L 153.530297 205.56 
L 153.591654 300.06 
L 153.653012 290.4 
L 153.837084 341.64 
L 153.898441 331.377492 
L 153.959799 282.84 
L 154.082514 364.74 
L 154.205229 210.24 
L 154.266586 224.46 
L 154.389301 275.595 
L 154.450658 255.96 
L 154.634731 305.52 
L 154.818803 212.860451 
L 154.941518 316.44 
L 155.002875 297.12 
L 155.064233 330.3 
L 155.12559 308.88 
L 155.186948 205.56 
L 155.248305 329.04 
L 155.309663 290.4 
L 155.37102 306.36 
L 155.432378 251.928 
L 155.555093 308.788269 
L 155.800522 205.56 
L 155.923237 346.338086 
L 156.10731 210.24 
L 156.168667 308.88 
L 156.230024 306.36 
L 156.414097 271.008136 
L 156.475454 283.68 
L 156.536812 235.8 
L 156.598169 352.77 
L 156.659527 320.64 
L 156.720884 319.377202 
L 156.782242 254.448 
L 156.843599 351.138462 
L 156.904956 310.833604 
L 156.966314 305.081592 
L 157.089029 235.8 
L 157.150386 316.44 
L 157.211744 275.527059 
L 157.273101 286.2 
L 157.334459 275.28 
L 157.395816 205.28 
L 157.457173 234.830769 
L 157.579888 317.7 
L 157.763961 281.16 
L 157.825318 282.84 
L 157.886676 302.082005 
L 157.948033 116.8 
L 158.009391 351.138462 
L 158.070748 282.8622 
L 158.132105 281.16 
L 158.193463 348.36 
L 158.25482 184.14 
L 158.316178 311.76 
L 158.377535 289.56 
L 158.50025 363.312 
L 158.684323 208.743158 
L 158.74568 329.421347 
L 158.807037 262.759344 
L 158.868395 220.05 
L 158.929752 255.33 
L 159.052467 205.56 
L 159.113825 224.46 
L 159.23654 344.16 
L 159.297897 328.32 
L 159.359254 348.885 
L 159.420612 281.16 
L 159.481969 332.992665 
L 159.543327 275.28 
L 159.604684 324 
L 159.666042 230.365719 
L 159.788757 346.512 
L 159.972829 287.828509 
L 160.034186 351.72 
L 160.095544 252.432 
L 160.156901 271.44 
L 160.340974 348.78 
L 160.402331 261 
L 160.463689 339.12 
L 160.525046 249.754988 
L 160.586403 300.507745 
L 160.647761 289.333036 
L 160.709118 311.4 
L 160.770476 299.771538 
L 160.893191 308.061 
L 160.954548 360.855 
L 161.015906 298.8 
L 161.077263 302.220106 
L 161.138621 303.782951 
L 161.199978 315.18 
L 161.261335 312.516033 
" clip-path="url(#p12634fb6ad)" style="fill: none; stroke: #1f77b4; stroke-width: 1.5; stroke-linecap: square"/>
   </g>
   <g id="line2d_14">
    <path d="M 430.743261 200.52 
L 374.171691 349.2 
L 681.940666 255.96 
L 448.046062 344.16 
L 339.934233 329.04 
L 369.263095 261 
L 602.175979 200.52 
L 707.281293 261 
L 152.119075 192.96 
L 167.335723 298.8 
L 172.857894 235.8 
L 249.49335 261 
L 686.726547 276.12 
L 541.861605 253.44 
L 359.875405 119.88 
L 677.768359 278.64 
L 264.464568 306.36 
L 482.774379 326.52 
L 175.496264 250.92 
L 215.255892 235.8 
L 597.512813 243.36 
L 703.906633 261 
L 440.499096 233.28 
L 614.386112 344.16 
L 259.678687 316.44 
L 611.931814 346.68 
L 719.184639 356.76 
L 162.917987 316.44 
L 347.849344 306.36 
L 502.286049 361.8 
L 671.632614 288.72 
L 148.437628 296.28 
L 507.010573 293.76 
L 638.254161 313.92 
L 427.429958 306.36 
L 157.273101 261 
L 326.803739 261 
L 231.883762 306.36 
L 318.33641 351.72 
L 428.35032 225.72 
L 508.360437 261 
L 338.277582 341.64 
L 747.163636 240.84 
L 306.862567 261 
L 672.982478 263.52 
L 682.063381 273.6 
L 422.33729 329.04 
L 657.090898 253.44 
L 467.864519 223.2 
L 657.213613 281.16 
L 522.22722 308.88 
L 527.994821 215.64 
L 184.822597 308.88 
L 338.829799 215.64 
L 575.792275 281.16 
L 725.259026 170.28 
L 455.899816 255.96 
L 507.256002 316.44 
L 207.156709 253.44 
L 530.633191 334.08 
L 145.492471 286.2 
L 190.03798 351.72 
L 497.254738 306.36 
L 273.668186 245.88 
L 563.704857 250.92 
L 667.951167 147.6 
L 235.503851 281.16 
L 566.220513 235.8 
L 410.618017 344.16 
L 345.947263 137.52 
L 649.789361 303.84 
L 635.493075 361.8 
L 709.981021 180.36 
L 483.817456 281.16 
L 206.849922 306.36 
L 629.725475 318.96 
L 639.726739 281.16 
L 425.650592 235.8 
L 369.324452 235.8 
L 728.020112 66.96 
L 200.959606 329.04 
L 544.131831 195.48 
L 273.729543 235.8 
L 529.896902 360.54 
L 222.864216 347.94 
L 532.903417 235.8 
L 549.654001 190.44 
L 170.710383 306.36 
L 182.429656 316.44 
L 611.134167 339.12 
L 616.042763 298.8 
L 207.892998 250.92 
L 445.407692 306.36 
L 703.845276 273.6 
L 415.710685 322.74 
L 669.116959 329.04 
L 292.934426 326.52 
L 455.347599 261 
L 145.98333 281.16 
L 359.936762 119.88 
L 227.711455 316.44 
L 353.432872 248.4 
L 276.674701 311.4 
L 534.805498 200.52 
L 196.112368 281.16 
L 559.962053 306.36 
L 396.383088 306.36 
L 486.149039 338.868 
L 496.027589 215.64 
L 569.90196 306.36 
L 298.088451 296.28 
L 237.590005 273.6 
L 587.266119 276.12 
L 263.482849 351.72 
L 525.295093 261 
L 258.512896 281.16 
L 423.871226 369.36 
L 142.547313 308.88 
L 319.563559 351.72 
L 375.521555 261 
L 535.664502 349.2 
L 745.6297 195.48 
L 624.816879 261 
L 523.761157 283.68 
L 573.52205 235.8 
L 502.347406 361.8 
L 671.755329 349.2 
L 576.65128 344.16 
L 153.530297 311.4 
L 641.076603 336.6 
L 644.389906 334.08 
L 459.029046 356.76 
L 266.243934 271.08 
L 500.445325 261 
L 415.649328 322.74 
L 387.731688 195.48 
L 703.783918 278.64 
L 159.481969 329.04 
L 595.119872 243.36 
L 517.502697 255.96 
L 257.469819 281.16 
L 187.276895 308.88 
L 685.68347 316.44 
L 296.309085 245.88 
L 545.911197 248.4 
L 423.073579 250.92 
L 283.424021 298.8 
L 433.933848 147.6 
L 735.076218 258.48 
L 233.540413 316.44 
L 347.297127 346.68 
L 557.446397 271.08 
L 630.829909 235.8 
L 404.114127 291.24 
L 503.145053 324 
L 184.454452 311.4 
L 653.593523 248.4 
L 689.671705 255.96 
L 620.030998 190.44 
L 367.606444 301.32 
L 638.070088 273.6 
L 245.934618 316.44 
L 690.039849 339.12 
L 642.794612 281.16 
L 466.8828 356.76 
L 500.936185 261 
L 443.628326 261 
L 258.390181 306.36 
L 699.672969 344.16 
L 540.818528 344.16 
L 188.197257 281.16 
L 688.076411 268.56 
L 237.22186 329.04 
L 333.798488 301.32 
L 221.08485 261 
L 206.665849 329.04 
L 145.921973 306.36 
L 535.72586 365.58 
L 707.465365 205.56 
L 337.418578 306.36 
L 617.208555 273.6 
L 430.006971 329.04 
L 340.97731 326.52 
L 438.842444 235.8 
L 553.580878 273.6 
L 253.297512 326.52 
L 260.108189 344.16 
L 380.736938 254.7 
L 289.007549 255.96 
L 290.6642 281.16 
L 236.362856 351.72 
L 293.241213 321.48 
L 731.210699 349.2 
L 710.471881 77.04 
L 343.186178 324 
L 414.238106 356.76 
L 679.547725 228.24 
L 680.099942 342.9 
L 288.639404 308.88 
L 601.562405 242.1 
L 453.138731 351.72 
L 623.3443 240.84 
L 612.913533 66.96 
L 411.047519 324 
L 432.706699 261 
L 340.24102 313.92 
L 302.322116 281.16 
L 389.020194 369.36 
L 463.937642 313.92 
L 422.030503 349.2 
L 529.037898 252.18 
L 556.89418 258.48 
L 277.595063 311.4 
L 638.376875 318.96 
L 586.652544 210.6 
L 696.114237 364.32 
L 730.535767 281.16 
L 501.611117 306.36 
L 450.193573 339.12 
L 495.291299 261 
L 349.505996 306.36 
L 272.625109 235.8 
L 623.221585 281.16 
L 448.720994 261 
L 534.375996 261 
L 374.110333 349.2 
L 324.226726 261 
L 506.949215 205.56 
L 609.600231 77.04 
L 425.159733 122.4 
L 550.328933 306.36 
L 498.972747 286.2 
L 588.554625 180.36 
L 514.312109 324 
L 517.932199 356.76 
L 485.65818 278.64 
L 612.238601 235.8 
L 152.794007 308.88 
L 658.072617 331.56 
L 678.504649 195.48 
L 352.512511 198 
L 607.391363 235.8 
L 482.835737 326.52 
L 255.690453 329.04 
L 219.857701 349.2 
L 518.607131 281.16 
L 544.254545 190.44 
L 672.859763 263.52 
L 434.915568 283.68 
L 540.266311 318.96 
L 652.489089 250.92 
L 551.249295 349.2 
L 630.891266 344.16 
L 197.584947 293.76 
L 421.662358 329.04 
L 405.463991 359.28 
L 345.333689 215.64 
L 393.069786 215.64 
L 500.629398 213.12 
L 536.462149 263.52 
L 483.203882 281.16 
L 242.866745 235.8 
L 424.546158 306.36 
L 393.806075 321.48 
L 192.308206 283.68 
L 348.769706 225.72 
L 664.02429 235.8 
L 655.372889 238.32 
L 692.248718 253.44 
L 407.059285 329.04 
L 253.35887 306.36 
L 336.743646 336.6 
L 245.873261 311.4 
L 634.204569 213.12 
L 604.81435 334.08 
L 458.476829 248.4 
L 522.288578 306.36 
L 458.660901 254.7 
L 487.928405 286.2 
L 638.49959 273.6 
L 413.010957 281.16 
L 152.48722 261 
L 722.866086 235.8 
L 335.516497 215.64 
L 416.876477 321.48 
L 329.380752 288.72 
L 551.433367 268.56 
L 650.464293 240.84 
L 738.450878 203.04 
L 242.621316 318.96 
L 547.322418 313.92 
L 248.143486 369.36 
L 432.645342 281.16 
L 568.122594 261 
L 629.84819 318.96 
L 572.908475 228.24 
L 540.879886 344.16 
L 395.033224 339.12 
L 639.910812 255.96 
L 514.802969 261 
L 241.210094 347.94 
L 154.450658 313.92 
L 639.113165 324 
L 683.720032 303.84 
L 173.226038 255.96 
L 245.995975 316.44 
L 559.164406 281.16 
L 219.550914 278.64 
L 231.515617 281.16 
L 378.52807 261 
L 626.903032 215.64 
L 144.694824 324 
L 673.105193 315.18 
L 202.923045 298.8 
L 319.011342 316.44 
L 242.069099 281.16 
L 158.193463 308.88 
L 330.85333 334.08 
L 428.59575 157.68 
L 434.117921 344.16 
L 222.434714 283.68 
L 684.640394 261 
L 178.441422 349.2 
L 705.624642 122.4 
L 284.589812 351.72 
L 284.283025 271.08 
L 735.567078 334.08 
L 160.034186 349.2 
L 373.005899 313.92 
L 524.067944 261 
L 491.91664 233.28 
L 520.938714 329.04 
L 338.09351 303.84 
L 449.027781 215.64 
L 353.2488 261 
L 245.075614 213.12 
L 727.897397 215.64 
L 438.658372 250.92 
L 544.62269 308.88 
L 677.952431 334.08 
L 244.584754 329.04 
L 544.929477 342.9 
L 284.835242 306.36 
L 473.202617 343.152 
L 490.873563 281.16 
L 620.70593 283.68 
L 494.125508 215.64 
L 391.658564 339.12 
L 685.253968 341.64 
L 596.899239 352.224 
L 456.697463 326.52 
L 155.064233 283.68 
L 420.926069 349.2 
L 682.738313 258.48 
L 452.954658 263.52 
L 344.965544 339.12 
L 360.673052 313.92 
L 547.813278 341.64 
L 481.54723 255.96 
L 161.87491 334.08 
L 143.958534 255.96 
L 197.400874 298.8 
L 549.285856 293.76 
L 348.033417 308.88 
L 144.449394 293.76 
L 565.361509 306.36 
L 272.13425 313.92 
L 246.548193 369.36 
L 378.03721 283.68 
L 337.909437 278.64 
L 717.037128 339.12 
L 394.481007 310.14 
L 362.452418 324 
L 362.452418 324 
" clip-path="url(#p12634fb6ad)" style="fill: none; stroke: #ff7f0e; stroke-width: 1.5; stroke-linecap: square"/>
   </g>
   <g id="patch_3">
    <path d="M 108 384.48 
L 108 51.84 
" style="fill: none; stroke: #000000; stroke-width: 0.8; stroke-linejoin: miter; stroke-linecap: square"/>
   </g>
   <g id="patch_4">
    <path d="M 777.6 384.48 
L 777.6 51.84 
" style="fill: none; stroke: #000000; stroke-width: 0.8; stroke-linejoin: miter; stroke-linecap: square"/>
   </g>
   <g id="patch_5">
    <path d="M 108 384.48 
L 777.6 384.48 
" style="fill: none; stroke: #000000; stroke-width: 0.8; stroke-linejoin: miter; stroke-linecap: square"/>
   </g>
   <g id="patch_6">
    <path d="M 108 51.84 
L 777.6 51.84 
" style="fill: none; stroke: #000000; stroke-width: 0.8; stroke-linejoin: miter; stroke-linecap: square"/>
   </g>
   <g id="text_13">
    <!-- Regressão: Real vs Previsto -->
    <g transform="translate(360.520313 45.84) scale(0.12 -0.12)">
     <defs>
      <path id="DejaVuSans-52" d="M 2841 2188 
Q 3044 2119 3236 1894 
Q 3428 1669 3622 1275 
L 4263 0 
L 3584 0 
L 2988 1197 
Q 2756 1666 2539 1819 
Q 2322 1972 1947 1972 
L 1259 1972 
L 1259 0 
L 628 0 
L 628 4666 
L 2053 4666 
Q 2853 4666 3247 4331 
Q 3641 3997 3641 3322 
Q 3641 2881 3436 2590 
Q 3231 2300 2841 2188 
z
M 1259 4147 
L 1259 2491 
L 2053 2491 
Q 2509 2491 2742 2702 
Q 2975 2913 2975 3322 
Q 2975 3731 2742 3939 
Q 2509 4147 2053 4147 
L 1259 4147 
z
" transform="scale(0.015625)"/>
      <path id="DejaVuSans-65" d="M 3597 1894 
L 3597 1613 
L 953 1613 
Q 991 1019 1311 708 
Q 1631 397 2203 397 
Q 2534 397 2845 478 
Q 3156 559 3463 722 
L 3463 178 
Q 3153 47 2828 -22 
Q 2503 -91 2169 -91 
Q 1331 -91 842 396 
Q 353 884 353 1716 
Q 353 2575 817 3079 
Q 1281 3584 2069 3584 
Q 2775 3584 3186 3129 
Q 3597 2675 3597 1894 
z
M 3022 2063 
Q 3016 2534 2758 2815 
Q 2500 3097 2075 3097 
Q 1594 3097 1305 2825 
Q 1016 2553 972 2059 
L 3022 2063 
z
" transform="scale(0.015625)"/>
      <path id="DejaVuSans-67" d="M 2906 1791 
Q 2906 2416 2648 2759 
Q 2391 3103 1925 3103 
Q 1463 3103 1205 2759 
Q 947 2416 947 1791 
Q 947 1169 1205 825 
Q 1463 481 1925 481 
Q 2391 481 2648 825 
Q 2906 1169 2906 1791 
z
M 3481 434 
Q 3481 -459 3084 -895 
Q 2688 -1331 1869 -1331 
Q 1566 -1331 1297 -1286 
Q 1028 -1241 775 -1147 
L 775 -588 
Q 1028 -725 1275 -790 
Q 1522 -856 1778 -856 
Q 2344 -856 2625 -561 
Q 2906 -266 2906 331 
L 2906 616 
Q 2728 306 2450 153 
Q 2172 0 1784 0 
Q 1141 0 747 490 
Q 353 981 353 1791 
Q 353 2603 747 3093 
Q 1141 3584 1784 3584 
Q 2172 3584 2450 3431 
Q 2728 3278 2906 2969 
L 2906 3500 
L 3481 3500 
L 3481 434 
z
" transform="scale(0.015625)"/>
      <path id="DejaVuSans-72" d="M 2631 2963 
Q 2534 3019 2420 3045 
Q 2306 3072 2169 3072 
Q 1681 3072 1420 2755 
Q 1159 2438 1159 1844 
L 1159 0 
L 581 0 
L 581 3500 
L 1159 3500 
L 1159 2956 
Q 1341 3275 1631 3429 
Q 1922 3584 2338 3584 
Q 2397 3584 2469 3576 
Q 2541 3569 2628 3553 
L 2631 2963 
z
" transform="scale(0.015625)"/>
      <path id="DejaVuSans-73" d="M 2834 3397 
L 2834 2853 
Q 2591 2978 2328 3040 
Q 2066 3103 1784 3103 
Q 1356 3103 1142 2972 
Q 928 2841 928 2578 
Q 928 2378 1081 2264 
Q 1234 2150 1697 2047 
L 1894 2003 
Q 2506 1872 2764 1633 
Q 3022 1394 3022 966 
Q 3022 478 2636 193 
Q 2250 -91 1575 -91 
Q 1294 -91 989 -36 
Q 684 19 347 128 
L 347 722 
Q 666 556 975 473 
Q 1284 391 1588 391 
Q 1994 391 2212 530 
Q 2431 669 2431 922 
Q 2431 1156 2273 1281 
Q 2116 1406 1581 1522 
L 1381 1569 
Q 847 1681 609 1914 
Q 372 2147 372 2553 
Q 372 3047 722 3315 
Q 1072 3584 1716 3584 
Q 2034 3584 2315 3537 
Q 2597 3491 2834 3397 
z
" transform="scale(0.015625)"/>
      <path id="DejaVuSans-e3" d="M 2194 1759 
Q 1497 1759 1228 1600 
Q 959 1441 959 1056 
Q 959 750 1161 570 
Q 1363 391 1709 391 
Q 2188 391 2477 730 
Q 2766 1069 2766 1631 
L 2766 1759 
L 2194 1759 
z
M 3341 1997 
L 3341 0 
L 2766 0 
L 2766 531 
Q 2569 213 2275 61 
Q 1981 -91 1556 -91 
Q 1019 -91 701 211 
Q 384 513 384 1019 
Q 384 1609 779 1909 
Q 1175 2209 1959 2209 
L 2766 2209 
L 2766 2266 
Q 2766 2663 2505 2880 
Q 2244 3097 1772 3097 
Q 1472 3097 1187 3025 
Q 903 2953 641 2809 
L 641 3341 
Q 956 3463 1253 3523 
Q 1550 3584 1831 3584 
Q 2591 3584 2966 3190 
Q 3341 2797 3341 1997 
z
M 1844 4281 
L 1665 4453 
Q 1597 4516 1545 4545 
Q 1494 4575 1453 4575 
Q 1334 4575 1278 4461 
Q 1222 4347 1215 4091 
L 825 4091 
Q 831 4513 990 4742 
Q 1150 4972 1434 4972 
Q 1553 4972 1653 4928 
Q 1753 4884 1869 4781 
L 2047 4609 
Q 2115 4547 2167 4517 
Q 2219 4488 2259 4488 
Q 2378 4488 2434 4602 
Q 2490 4716 2497 4972 
L 2887 4972 
Q 2881 4550 2721 4320 
Q 2562 4091 2278 4091 
Q 2159 4091 2059 4134 
Q 1959 4178 1844 4281 
z
" transform="scale(0.015625)"/>
      <path id="DejaVuSans-6f" d="M 1959 3097 
Q 1497 3097 1228 2736 
Q 959 2375 959 1747 
Q 959 1119 1226 758 
Q 1494 397 1959 397 
Q 2419 397 2687 759 
Q 2956 1122 2956 1747 
Q 2956 2369 2687 2733 
Q 2419 3097 1959 3097 
z
M 1959 3584 
Q 2709 3584 3137 3096 
Q 3566 2609 3566 1747 
Q 3566 888 3137 398 
Q 2709 -91 1959 -91 
Q 1206 -91 779 398 
Q 353 888 353 1747 
Q 353 2609 779 3096 
Q 1206 3584 1959 3584 
z
" transform="scale(0.015625)"/>
      <path id="DejaVuSans-3a" d="M 750 794 
L 1409 794 
L 1409 0 
L 750 0 
L 750 794 
z
M 750 3309 
L 1409 3309 
L 1409 2516 
L 750 2516 
L 750 3309 
z
" transform="scale(0.015625)"/>
      <path id="DejaVuSans-20" transform="scale(0.015625)"/>
      <path id="DejaVuSans-61" d="M 2194 1759 
Q 1497 1759 1228 1600 
Q 959 1441 959 1056 
Q 959 750 1161 570 
Q 1363 391 1709 391 
Q 2188 391 2477 730 
Q 2766 1069 2766 1631 
L 2766 1759 
L 2194 1759 
z
M 3341 1997 
L 3341 0 
L 2766 0 
L 2766 531 
Q 2569 213 2275 61 
Q 1981 -91 1556 -91 
Q 1019 -91 701 211 
Q 384 513 384 1019 
Q 384 1609 779 1909 
Q 1175 2209 1959 2209 
L 2766 2209 
L 2766 2266 
Q 2766 2663 2505 2880 
Q 2244 3097 1772 3097 
Q 1472 3097 1187 3025 
Q 903 2953 641 2809 
L 641 3341 
Q 956 3463 1253 3523 
Q 1550 3584 1831 3584 
Q 2591 3584 2966 3190 
Q 3341 2797 3341 1997 
z
" transform="scale(0.015625)"/>
      <path id="DejaVuSans-6c" d="M 603 4863 
L 1178 4863 
L 1178 0 
L 603 0 
L 603 4863 
z
" transform="scale(0.015625)"/>
      <path id="DejaVuSans-76" d="M 191 3500 
L 800 3500 
L 1894 563 
L 2988 3500 
L 3597 3500 
L 2284 0 
L 1503 0 
L 191 3500 
z
" transform="scale(0.015625)"/>
      <path id="DejaVuSans-50" d="M 1259 4147 
L 1259 2394 
L 2053 2394 
Q 2494 2394 2734 2622 
Q 2975 2850 2975 3272 
Q 2975 3691 2734 3919 
Q 2494 4147 2053 4147 
L 1259 4147 
z
M 628 4666 
L 2053 4666 
Q 2838 4666 3239 4311 
Q 3641 3956 3641 3272 
Q 3641 2581 3239 2228 
Q 2838 1875 2053 1875 
L 1259 1875 
L 1259 0 
L 628 0 
L 628 4666 
z
" transform="scale(0.015625)"/>
      <path id="DejaVuSans-69" d="M 603 3500 
L 1178 3500 
L 1178 0 
L 603 0 
L 603 3500 
z
M 603 4863 
L 1178 4863 
L 1178 4134 
L 603 4134 
L 603 4863 
z
" transform="scale(0.015625)"/>
      <path id="DejaVuSans-74" d="M 1172 4494 
L 1172 3500 
L 2356 3500 
L 2356 3053 
L 1172 3053 
L 1172 1153 
Q 1172 725 1289 603 
Q 1406 481 1766 481 
L 2356 481 
L 2356 0 
L 1766 0 
Q 1100 0 847 248 
Q 594 497 594 1153 
L 594 3053 
L 172 3053 
L 172 3500 
L 594 3500 
L 594 4494 
L 1172 4494 
z
" transform="scale(0.015625)"/>
     </defs>
     <use xlink:href="#DejaVuSans-52"/>
     <use xlink:href="#DejaVuSans-65" x="64.982422"/>
     <use xlink:href="#DejaVuSans-67" x="126.505859"/>
     <use xlink:href="#DejaVuSans-72" x="189.982422"/>
     <use xlink:href="#DejaVuSans-65" x="228.845703"/>
     <use xlink:href="#DejaVuSans-73" x="290.369141"/>
     <use xlink:href="#DejaVuSans-73" x="342.46875"/>
     <use xlink:href="#DejaVuSans-e3" x="394.568359"/>
     <use xlink:href="#DejaVuSans-6f" x="455.847656"/>
     <use xlink:href="#DejaVuSans-3a" x="517.029297"/>
     <use xlink:href="#DejaVuSans-20" x="550.720703"/>
     <use xlink:href="#DejaVuSans-52" x="582.507812"/>
     <use xlink:href="#DejaVuSans-65" x="647.490234"/>
     <use xlink:href="#DejaVuSans-61" x="709.013672"/>
     <use xlink:href="#DejaVuSans-6c" x="770.292969"/>
     <use xlink:href="#DejaVuSans-20" x="798.076172"/>
     <use xlink:href="#DejaVuSans-76" x="829.863281"/>
     <use xlink:href="#DejaVuSans-73" x="889.042969"/>
     <use xlink:href="#DejaVuSans-20" x="941.142578"/>
     <use xlink:href="#DejaVuSans-50" x="972.929688"/>
     <use xlink:href="#DejaVuSans-72" x="1031.482422"/>
     <use xlink:href="#DejaVuSans-65" x="1070.345703"/>
     <use xlink:href="#DejaVuSans-76" x="1131.869141"/>
     <use xlink:href="#DejaVuSans-69" x="1191.048828"/>
     <use xlink:href="#DejaVuSans-73" x="1218.832031"/>
     <use xlink:href="#DejaVuSans-74" x="1270.931641"/>
     <use xlink:href="#DejaVuSans-6f" x="1310.140625"/>
    </g>
   </g>
   <g id="legend_1">
    <g id="patch_7">
     <path d="M 115 89.19625 
L 213.284375 89.19625 
Q 215.284375 89.19625 215.284375 87.19625 
L 215.284375 58.84 
Q 215.284375 56.84 213.284375 56.84 
L 115 56.84 
Q 113 56.84 113 58.84 
L 113 87.19625 
Q 113 89.19625 115 89.19625 
z
" style="fill: #ffffff; opacity: 0.8; stroke: #cccccc; stroke-linejoin: miter"/>
    </g>
    <g id="line2d_15">
     <path d="M 117 64.938437 
L 127 64.938437 
L 137 64.938437 
" style="fill: none; stroke: #1f77b4; stroke-width: 1.5; stroke-linecap: square"/>
    </g>
    <g id="text_14">
     <!-- Valores Reais -->
     <g transform="translate(145 68.438437) scale(0.1 -0.1)">
      <defs>
       <path id="DejaVuSans-56" d="M 1831 0 
L 50 4666 
L 709 4666 
L 2188 738 
L 3669 4666 
L 4325 4666 
L 2547 0 
L 1831 0 
z
" transform="scale(0.015625)"/>
      </defs>
      <use xlink:href="#DejaVuSans-56"/>
      <use xlink:href="#DejaVuSans-61" x="60.658203"/>
      <use xlink:href="#DejaVuSans-6c" x="121.9375"/>
      <use xlink:href="#DejaVuSans-6f" x="149.720703"/>
      <use xlink:href="#DejaVuSans-72" x="210.902344"/>
      <use xlink:href="#DejaVuSans-65" x="249.765625"/>
      <use xlink:href="#DejaVuSans-73" x="311.289062"/>
      <use xlink:href="#DejaVuSans-20" x="363.388672"/>
      <use xlink:href="#DejaVuSans-52" x="395.175781"/>
      <use xlink:href="#DejaVuSans-65" x="460.158203"/>
      <use xlink:href="#DejaVuSans-61" x="521.681641"/>
      <use xlink:href="#DejaVuSans-69" x="582.960938"/>
      <use xlink:href="#DejaVuSans-73" x="610.744141"/>
     </g>
    </g>
    <g id="line2d_16">
     <path d="M 117 79.616562 
L 127 79.616562 
L 137 79.616562 
" style="fill: none; stroke: #ff7f0e; stroke-width: 1.5; stroke-linecap: square"/>
    </g>
    <g id="text_15">
     <!-- Previsões -->
     <g transform="translate(145 83.116562) scale(0.1 -0.1)">
      <defs>
       <path id="DejaVuSans-f5" d="M 1959 3097 
Q 1497 3097 1228 2736 
Q 959 2375 959 1747 
Q 959 1119 1226 758 
Q 1494 397 1959 397 
Q 2419 397 2687 759 
Q 2956 1122 2956 1747 
Q 2956 2369 2687 2733 
Q 2419 3097 1959 3097 
z
M 1959 3584 
Q 2709 3584 3137 3096 
Q 3566 2609 3566 1747 
Q 3566 888 3137 398 
Q 2709 -91 1959 -91 
Q 1206 -91 779 398 
Q 353 888 353 1747 
Q 353 2609 779 3096 
Q 1206 3584 1959 3584 
z
M 1948 4281 
L 1769 4453 
Q 1701 4516 1649 4545 
Q 1598 4575 1557 4575 
Q 1438 4575 1382 4461 
Q 1326 4347 1319 4091 
L 929 4091 
Q 935 4513 1094 4742 
Q 1254 4972 1538 4972 
Q 1657 4972 1757 4928 
Q 1857 4884 1973 4781 
L 2151 4609 
Q 2219 4547 2271 4517 
Q 2323 4488 2363 4488 
Q 2482 4488 2538 4602 
Q 2594 4716 2601 4972 
L 2991 4972 
Q 2985 4550 2825 4320 
Q 2666 4091 2382 4091 
Q 2263 4091 2163 4134 
Q 2063 4178 1948 4281 
z
" transform="scale(0.015625)"/>
      </defs>
      <use xlink:href="#DejaVuSans-50"/>
      <use xlink:href="#DejaVuSans-72" x="58.552734"/>
      <use xlink:href="#DejaVuSans-65" x="97.416016"/>
      <use xlink:href="#DejaVuSans-76" x="158.939453"/>
      <use xlink:href="#DejaVuSans-69" x="218.119141"/>
      <use xlink:href="#DejaVuSans-73" x="245.902344"/>
      <use xlink:href="#DejaVuSans-f5" x="298.001953"/>
      <use xlink:href="#DejaVuSans-65" x="359.183594"/>
      <use xlink:href="#DejaVuSans-73" x="420.707031"/>
     </g>
    </g>
   </g>
  </g>
 </g>
 <defs>
  <clipPath id="p12634fb6ad">
   <rect x="108" y="51.84" width="669.6" height="332.64"/>
  </clipPath>
 </defs>
</svg>
